<?xml version="1.0" standalone="no"?>
<!DOCTYPE svg PUBLIC "-//W3C//DTD SVG 20010904//EN"
 "http://www.w3.org/TR/2001/REC-SVG-20010904/DTD/svg10.dtd">
<svg version="1.0" xmlns="http://www.w3.org/2000/svg"
 width="512.000000pt" height="512.000000pt" viewBox="0 0 950.000000 950.000000"
 preserveAspectRatio="xMidYMid meet">
<g transform="translate(0.000000,950.000000) scale(0.100000,-0.100000)"
fill="#000000" stroke="none">
<path d="M1485 9418 c-181 -20 -385 -85 -564 -178 -421 -222 -734 -654 -817
-1130 -18 -101 -19 -237 -19 -3380 l0 -3275 23 -102 c144 -651 604 -1111 1255
-1255 l102 -23 3290 0 3290 0 102 23 c651 144 1111 604 1255 1255 l23 102 0
3275 c0 3143 -1 3279 -19 3380 -25 146 -75 293 -151 445 -237 477 -713 807
-1247 865 -122 13 -6405 12 -6523 -2z m3573 -1663 c344 -43 622 -126 927 -275
300 -147 492 -286 746 -539 238 -239 370 -420 510 -701 195 -392 306 -858 325
-1371 7 -175 2 -214 -38 -264 -76 -97 -243 -81 -300 28 -18 36 -23 67 -29 207
-10 215 -25 354 -55 520 -118 651 -430 1171 -928 1544 -415 312 -844 464
-1406 497 -190 11 -223 18 -266 51 -80 63 -84 211 -7 280 47 43 80 49 243 44
85 -3 210 -13 278 -21z m-2286 -108 c35 -12 89 -40 120 -60 190 -126 719 -803
892 -1141 99 -193 132 -336 101 -442 -32 -114 -85 -174 -322 -365 -95 -77
-184 -156 -198 -177 -36 -52 -65 -154 -65 -226 1 -167 109 -470 251 -703 110
-181 307 -413 502 -591 229 -210 431 -353 659 -466 293 -146 472 -183 603
-122 33 15 68 35 79 44 10 9 87 103 171 207 162 204 199 237 310 275 141 48
285 35 430 -39 110 -57 350 -206 505 -314 204 -143 640 -499 699 -570 104
-128 122 -292 52 -473 -74 -191 -362 -549 -563 -702 -182 -138 -311 -191 -481
-199 -140 -7 -198 5 -377 79 -1404 579 -2525 1443 -3415 2630 -465 620 -819
1263 -1061 1930 -141 389 -148 558 -32 757 50 84 263 292 418 408 258 192 377
263 472 283 65 14 178 3 250 -23z m2355 -617 c607 -89 1077 -371 1385 -829
173 -258 281 -561 318 -886 13 -119 13 -336 -1 -372 -13 -34 -55 -80 -91 -99
-39 -20 -122 -18 -168 6 -77 39 -100 101 -100 269 0 259 -67 532 -183 744
-132 242 -324 442 -558 581 -201 120 -498 209 -769 231 -98 8 -152 28 -189 71
-57 65 -63 153 -15 226 52 81 132 94 371 58z m213 -755 c197 -42 348 -117 477
-238 166 -157 257 -347 297 -620 27 -178 16 -248 -47 -306 -59 -54 -168 -56
-234 -5 -48 36 -63 74 -74 177 -13 137 -37 233 -78 322 -88 189 -243 287 -505
319 -123 15 -160 29 -200 76 -73 87 -45 228 56 280 38 19 54 21 138 16 52 -3
129 -12 170 -21z"/>
</g>
</svg>
