<?xml version="1.0" standalone="no"?>
<!DOCTYPE svg PUBLIC "-//W3C//DTD SVG 20010904//EN"
 "http://www.w3.org/TR/2001/REC-SVG-20010904/DTD/svg10.dtd">
<svg version="1.0" xmlns="http://www.w3.org/2000/svg"
 width="960.000000pt" height="960.000000pt" viewBox="0 0 960.000000 960.000000"
 preserveAspectRatio="xMidYMid meet">
<metadata>
Created by potrace 1.11, written by Peter Selinger 2001-2013
</metadata>
<g transform="translate(0.000000,960.000000) scale(0.100000,-0.100000)"
fill="#000000" stroke="none">
<path d="M4835 9230 c-3 -5 -6 -49 -5 -97 1 -49 -3 -100 -7 -115 -8 -27 -9
-27 -37 -13 -33 18 -58 19 -72 5 -6 -6 -42 -11 -80 -11 -38 -1 -77 -5 -88 -11
-11 -6 -76 -14 -145 -19 -69 -5 -148 -13 -176 -19 -27 -5 -69 -12 -93 -15 -51
-6 -199 -56 -234 -79 -13 -8 -43 -22 -67 -31 -96 -33 -241 -153 -241 -198 0
-15 -54 -67 -69 -67 -8 0 -115 -102 -137 -131 -14 -18 -121 -111 -140 -122
-17 -10 -184 -230 -184 -243 0 -5 -8 -21 -17 -34 -19 -26 -24 -38 -74 -180
-85 -241 -37 -499 102 -545 38 -13 54 -39 76 -124 8 -31 26 -75 39 -98 17 -29
28 -70 35 -130 6 -49 16 -94 22 -102 7 -7 12 -51 13 -97 0 -59 6 -90 17 -108
10 -14 26 -49 38 -78 11 -29 31 -64 44 -78 33 -35 45 -123 20 -150 -21 -23
-13 -39 9 -21 8 7 16 8 19 4 7 -12 26 -135 37 -238 5 -49 12 -101 15 -115 3
-14 8 -59 9 -100 2 -41 8 -86 14 -100 31 -78 22 -237 -14 -223 -10 4 -12 0 -8
-11 8 -20 -5 -20 -74 -2 -46 13 -54 13 -59 0 -3 -8 -36 -36 -74 -64 -38 -28
-69 -54 -69 -59 0 -5 -19 -11 -42 -13 -24 -3 -50 -6 -58 -9 -18 -5 -27 38 -11
54 6 6 11 22 11 35 0 35 30 80 58 87 13 3 50 3 82 -1 80 -9 87 -2 54 54 -14
26 -34 55 -43 64 -15 16 -19 16 -46 2 -57 -30 -103 -42 -114 -31 -28 28 5 77
52 77 14 0 29 5 32 10 3 6 18 7 32 4 24 -7 25 -5 19 22 -4 16 -23 62 -42 103
-19 40 -34 86 -34 100 0 32 -32 138 -53 177 -8 16 -18 36 -21 46 -7 22 -123
36 -157 18 -28 -15 -99 -21 -99 -8 0 5 7 11 15 14 8 4 15 12 15 20 0 8 5 14
10 14 6 0 10 -7 10 -15 0 -8 7 -15 15 -15 13 0 14 4 5 20 -14 25 -2 49 42 82
44 33 97 51 113 38 15 -12 25 7 25 49 0 37 -8 43 -34 26 -12 -8 -50 -15 -91
-16 -50 -1 -85 -8 -124 -25 -44 -20 -70 -24 -150 -24 -99 0 -124 -7 -119 -31
2 -10 -5 -13 -25 -11 -15 2 -34 -2 -42 -8 -8 -6 -19 -9 -24 -6 -13 8 -26 -13
-14 -25 5 -5 30 -13 56 -18 38 -7 47 -6 47 6 0 20 20 12 38 -16 15 -22 15 -22
-14 -15 -36 9 -65 8 -73 -4 -13 -19 -41 -21 -50 -4 -6 9 -11 12 -11 5 0 -6 5
-15 10 -18 6 -3 10 -17 10 -29 0 -33 23 -50 49 -37 11 6 27 8 36 5 9 -4 31 2
50 12 36 19 29 20 107 -21 14 -7 18 -17 14 -37 -3 -15 -1 -30 5 -34 7 -4 7
-10 0 -18 -6 -7 -8 -16 -4 -19 3 -4 0 -13 -7 -22 -20 -24 -9 -26 50 -10 109
29 140 15 140 -65 0 -84 1 -91 16 -79 8 6 14 17 14 24 0 7 6 18 14 24 11 9 15
8 20 -4 4 -11 15 -15 33 -13 27 3 28 1 28 -42 0 -71 -13 -84 -84 -81 -39 2
-72 -3 -94 -14 -29 -13 -39 -14 -73 -3 -31 10 -43 22 -60 57 -11 24 -30 48
-42 52 -18 7 -22 16 -22 48 0 22 5 43 11 46 22 14 4 38 -33 42 -28 3 -43 -2
-58 -17 -11 -11 -25 -20 -30 -20 -5 0 -10 -4 -10 -9 0 -15 -57 -23 -79 -12
-11 6 -34 36 -52 68 -52 91 -75 107 -112 78 -11 -7 -26 -11 -35 -8 -12 5 -14
1 -10 -15 4 -12 3 -24 0 -26 -13 -7 -52 13 -52 27 0 8 -12 19 -26 25 -25 12
-26 18 -7 70 3 6 0 12 -5 12 -6 0 -23 11 -38 25 -30 28 -61 32 -90 10 -10 -8
-15 -15 -10 -15 4 0 2 -10 -7 -23 -10 -16 -14 -45 -13 -96 2 -64 5 -76 26 -91
21 -16 22 -20 11 -48 -12 -30 -55 -57 -72 -47 -5 4 -22 -2 -39 -12 -27 -15
-30 -23 -30 -66 0 -41 -3 -48 -17 -45 -10 2 -19 12 -22 23 -2 11 -6 22 -10 25
-10 8 -31 74 -31 97 0 13 -16 34 -41 54 -40 31 -42 32 -55 14 -12 -16 -12 -22
2 -43 20 -31 5 -72 -26 -72 -11 0 -24 -8 -27 -17 -4 -10 -15 -29 -25 -43 -17
-24 -18 -29 -3 -63 25 -59 20 -99 -14 -118 -20 -12 -39 -15 -62 -10 -30 6 -35
11 -39 46 -3 22 -13 56 -21 75 -27 59 -32 75 -30 84 1 5 -4 13 -11 17 -24 16
-50 9 -75 -17 -19 -21 -21 -29 -12 -40 7 -8 9 -17 5 -21 -8 -9 -57 18 -50 28
2 4 0 11 -6 14 -6 4 -8 15 -5 26 4 10 2 19 -3 19 -14 0 -44 80 -44 118 0 29
-3 32 -21 26 -27 -9 -60 -50 -70 -88 -19 -69 -4 -129 44 -177 15 -15 19 -33
19 -82 0 -71 10 -89 59 -106 29 -9 37 -8 53 6 18 16 20 16 40 -5 19 -18 20
-23 7 -38 -8 -9 -13 -19 -11 -21 9 -12 -4 -19 -40 -22 -22 -1 -49 -6 -59 -11
-22 -12 -162 -13 -175 -1 -5 4 -30 14 -55 21 -41 10 -50 10 -72 -5 -14 -9 -29
-31 -33 -48 -11 -52 -46 -104 -82 -122 -31 -14 -36 -14 -58 0 -13 8 -24 21
-25 28 -2 36 -6 58 -12 63 -10 11 -46 -7 -52 -26 -6 -19 -66 -60 -89 -60 -7 0
-21 -9 -30 -19 -20 -23 -14 -81 9 -81 7 0 15 -5 17 -12 3 -7 27 -13 59 -14 30
0 89 -7 132 -15 60 -10 92 -11 141 -2 41 7 80 8 108 2 61 -12 226 -31 272 -31
21 0 42 5 46 11 9 16 40 3 34 -14 -3 -7 -26 -15 -52 -18 -26 -3 -110 -13 -187
-21 -126 -15 -151 -15 -260 -1 -66 9 -158 20 -205 26 -46 5 -87 14 -90 19 -6
9 -62 15 -110 12 -14 -1 -50 -17 -79 -36 -42 -28 -61 -34 -89 -30 -44 5 -52
-5 -52 -73 0 -39 4 -53 14 -53 8 0 17 -8 21 -19 3 -10 14 -26 25 -36 24 -22
25 -39 3 -65 -12 -14 -20 -16 -30 -9 -20 17 -27 -14 -14 -66 14 -57 15 -54
-15 -65 l-26 -10 7 -108 c9 -132 15 -148 56 -157 33 -7 150 -65 201 -99 15
-10 48 -52 73 -92 44 -73 56 -116 35 -129 -6 -4 -9 -14 -8 -23 2 -11 -8 -19
-32 -25 -86 -21 -87 -21 -122 17 l-34 37 -44 -16 c-44 -15 -46 -15 -62 6 -17
19 -18 20 -18 3 0 -36 33 -194 41 -194 4 0 15 10 23 22 13 18 24 22 52 19 45
-4 175 28 191 46 7 10 13 11 18 4 3 -6 15 -11 26 -11 11 0 23 -10 28 -22 17
-44 45 -58 142 -73 52 -8 109 -19 127 -26 23 -8 55 -9 100 -3 37 4 158 7 269
6 207 -3 268 4 299 35 15 15 15 18 -3 32 -11 9 -30 30 -42 48 l-22 32 20 40
c19 36 84 81 118 81 6 0 18 11 27 25 9 14 33 32 54 40 20 9 46 24 57 34 49 44
111 71 166 71 29 0 76 9 104 19 54 21 171 41 235 41 34 0 40 3 40 21 0 12 8
23 20 26 23 6 25 17 7 34 -20 19 -4 112 23 139 11 11 60 86 60 93 0 3 -13 1
-29 -4 -61 -21 -97 30 -66 95 35 74 142 100 227 56 40 -21 41 -21 62 -1 15 13
40 20 84 24 45 3 66 9 76 22 10 14 17 16 32 7 18 -10 16 -12 -13 -24 -21 -8
-39 -25 -49 -48 -29 -62 -54 -90 -79 -90 -20 0 -25 -7 -31 -36 -4 -23 -22 -53
-50 -82 -24 -25 -41 -49 -38 -53 3 -5 -1 -6 -9 -3 -8 3 -17 -3 -21 -13 -3 -10
-8 -23 -11 -29 -10 -19 26 -25 51 -9 32 20 41 19 50 -7 14 -40 12 -46 -10 -53
-14 -4 -17 -8 -8 -12 8 -3 19 0 25 6 6 6 20 11 31 12 21 0 21 0 1 9 -11 5 -14
9 -7 9 8 1 11 8 7 20 -6 21 35 54 63 49 22 -4 63 -67 61 -93 -3 -38 1 -41 56
-59 42 -13 59 -14 75 -6 11 6 25 8 31 4 6 -3 18 1 27 9 9 8 44 22 77 31 85 25
89 28 101 78 6 24 18 57 27 74 16 30 62 84 72 84 3 0 18 8 33 19 15 10 53 33
84 52 32 18 60 40 63 49 8 26 200 220 217 220 24 0 58 -48 58 -82 0 -27 3 -30
25 -24 18 5 27 1 34 -13 6 -10 8 -21 5 -23 -2 -3 0 -17 5 -31 9 -22 8 -25 -6
-20 -12 5 -14 1 -9 -15 5 -13 1 -27 -12 -39 -23 -22 -35 -53 -21 -53 5 0 14
11 18 24 5 13 16 26 24 29 7 3 20 18 28 35 12 24 18 28 37 21 12 -5 22 -15 22
-23 0 -8 9 -18 21 -21 19 -6 19 -8 4 -32 -10 -14 -13 -28 -9 -32 5 -3 17 -21
27 -40 13 -24 15 -37 7 -46 -8 -10 -6 -15 10 -20 16 -5 18 -10 11 -19 -14 -16
-4 -26 26 -26 29 0 30 -13 1 -32 -17 -12 -19 -18 -10 -34 6 -10 12 -15 12 -10
0 5 7 3 15 -4 12 -10 16 -9 21 3 3 9 12 13 21 10 11 -5 12 -8 2 -14 -10 -6
-10 -11 0 -23 15 -18 1 -22 -17 -4 -6 6 -15 8 -19 5 -7 -8 18 -59 45 -90 19
-21 72 -48 82 -42 5 3 19 -8 32 -23 13 -16 29 -27 36 -24 17 5 15 20 -8 44
-11 12 -20 25 -20 30 0 10 76 -63 105 -100 11 -15 27 -27 35 -27 8 0 15 -7 15
-15 0 -8 16 -20 35 -26 19 -6 36 -19 38 -28 2 -9 8 -16 13 -16 5 0 9 -5 9 -10
0 -7 -6 -7 -19 -1 -25 14 -35 1 -15 -21 14 -14 14 -20 4 -33 -7 -9 -10 -19 -6
-22 4 -4 11 -1 16 6 5 9 14 11 26 6 17 -7 17 -8 -4 -14 -27 -7 -28 -19 -7 -43
8 -10 12 -24 9 -33 -8 -20 23 -31 46 -17 20 12 96 -8 83 -22 -5 -5 2 -5 15 -2
13 5 22 3 22 -3 0 -6 -4 -11 -9 -11 -5 0 -11 -12 -14 -26 -3 -19 1 -27 17 -34
11 -4 35 -20 51 -34 l30 -27 -27 7 c-21 5 -28 2 -28 -9 0 -10 11 -17 27 -19
29 -3 45 -28 17 -28 -9 0 -14 -3 -11 -7 4 -3 17 -1 30 5 12 5 37 13 55 16 31
5 33 4 32 -22 -4 -50 -2 -52 26 -42 27 11 52 2 88 -31 17 -17 21 -17 36 -4 19
17 38 19 60 5 11 -7 6 -13 -25 -26 -31 -13 -43 -14 -58 -4 -14 8 -22 8 -33 -1
-29 -24 -15 -34 46 -34 33 0 60 3 60 6 0 3 14 4 30 1 36 -5 39 -19 6 -31 -13
-5 -26 -19 -29 -31 -3 -13 -11 -20 -19 -18 -7 3 -29 0 -48 -7 -19 -7 -51 -11
-70 -9 -80 8 -111 14 -144 28 -23 10 -45 12 -70 6 -19 -4 -37 -6 -39 -4 -11
11 -51 12 -68 1 -28 -18 -23 -26 20 -33 36 -6 38 -8 36 -38 -2 -21 -8 -31 -18
-30 -9 1 -13 -4 -11 -11 8 -19 -15 -29 -32 -14 -9 8 -39 13 -70 12 -46 -1 -54
1 -54 17 0 10 -8 25 -18 32 -27 19 -35 37 -23 52 8 9 0 20 -34 44 -25 17 -45
38 -45 46 0 8 -9 18 -20 21 -11 4 -27 22 -35 41 -9 23 -21 34 -34 34 -14 0
-19 5 -15 15 4 10 0 15 -10 15 -9 0 -19 7 -22 15 -4 8 -11 15 -17 15 -6 0 -24
12 -39 27 l-28 27 -2 -25 c0 -13 -1 -30 0 -38 0 -8 -5 -20 -12 -27 -10 -10
-16 -5 -30 26 -27 61 -44 130 -51 205 -10 96 -29 178 -43 183 -13 4 -17 -44
-4 -52 4 -2 6 -25 4 -50 -3 -37 -8 -45 -25 -48 -12 -2 -23 -11 -25 -21 -3 -15
1 -17 24 -11 26 7 27 6 21 -25 -4 -17 -3 -31 2 -31 8 0 21 -44 27 -90 1 -8 10
-40 21 -70 48 -136 51 -148 40 -159 -7 -7 -3 -16 16 -31 14 -11 33 -43 43 -73
9 -28 21 -58 27 -65 7 -9 6 -20 -3 -37 -7 -14 -11 -26 -9 -27 2 -2 13 -8 24
-14 11 -6 22 -22 23 -35 2 -13 15 -36 28 -52 13 -16 24 -37 24 -48 0 -10 3
-19 8 -19 4 0 16 -16 26 -35 15 -28 25 -35 48 -35 37 0 72 -32 65 -59 -6 -26
8 -28 22 -3 9 14 12 15 20 3 5 -7 14 -10 20 -7 6 4 11 0 11 -8 0 -9 8 -16 19
-16 10 0 29 -15 42 -34 18 -26 27 -32 36 -24 10 8 13 6 13 -6 0 -9 12 -22 26
-28 22 -10 27 -9 37 7 6 11 12 24 12 30 0 17 32 17 49 0 9 -9 16 -25 16 -35 0
-21 41 -70 59 -70 15 0 14 -20 -1 -21 -7 -1 -16 -1 -20 -1 -3 1 -9 -5 -12 -13
-3 -8 0 -12 7 -10 7 2 25 6 40 10 20 4 27 10 23 21 -3 8 -1 12 4 9 5 -3 35 2
66 11 41 12 59 13 67 5 8 -8 8 -11 -1 -11 -27 0 -10 -15 19 -17 24 -2 30 1 25
13 -5 12 -2 15 11 10 9 -4 42 -1 72 5 31 7 62 12 69 10 8 -1 20 3 27 9 8 7 18
9 24 6 5 -4 16 1 24 9 23 23 117 18 117 -5 0 -5 -10 -12 -22 -16 -13 -4 -34
-15 -47 -25 -13 -10 -27 -16 -32 -13 -5 3 -9 0 -9 -6 0 -6 -8 -9 -18 -6 -14 5
-22 -1 -32 -21 -7 -16 -13 -33 -11 -40 2 -17 -20 -28 -29 -13 -6 10 -13 9 -31
-4 -13 -9 -33 -16 -44 -17 -17 -1 -16 -2 5 -9 22 -7 23 -8 4 -9 -12 -1 -27 -8
-34 -16 -8 -10 -31 -15 -66 -15 -50 0 -54 2 -51 22 1 17 -4 24 -20 26 -15 2
-23 -2 -23 -12 0 -22 -64 -31 -111 -16 -45 15 -46 33 -4 40 16 3 30 10 32 17
6 18 -34 26 -73 13 -27 -9 -38 -9 -49 0 -17 14 -50 5 -40 -10 3 -5 15 -10 27
-10 15 0 18 -4 13 -17 -4 -10 -9 -24 -12 -32 -5 -10 0 -12 15 -6 15 4 22 2 22
-6 0 -7 12 -24 28 -36 25 -21 25 -24 10 -33 -26 -16 -22 -31 5 -25 20 5 23 2
22 -22 0 -23 5 -29 28 -31 23 -3 28 -8 24 -23 -4 -16 0 -19 25 -19 27 0 29 -3
24 -24 -6 -23 -5 -23 67 -19 89 6 98 8 91 28 -4 10 0 15 12 15 11 0 30 3 42 7
22 5 23 4 11 -15 -7 -12 -10 -24 -7 -27 10 -10 48 14 48 29 0 15 76 31 102 21
9 -4 19 -2 22 4 4 5 28 13 54 16 68 9 132 26 132 36 0 5 -6 9 -14 9 -7 0 -19
7 -26 16 -11 12 -11 15 0 12 8 -2 13 8 14 26 2 25 27 56 48 56 18 0 6 -21 -17
-30 -30 -11 -33 -30 -6 -30 11 0 26 -3 34 -6 9 -3 16 3 20 17 5 19 11 21 41
16 20 -3 38 -1 41 4 9 14 45 11 51 -5 5 -12 9 -11 25 5 10 10 19 21 19 24 0 2
-40 2 -90 -1 -49 -2 -90 -1 -90 4 0 16 25 32 51 32 15 0 31 5 34 10 4 6 16 8
28 4 20 -6 20 -6 -2 22 -19 25 -20 29 -7 32 9 2 16 10 16 18 0 19 26 18 34 -2
3 -9 6 -27 6 -40 0 -20 5 -24 28 -24 26 0 52 15 52 31 0 3 -12 9 -27 12 -16 3
-35 18 -44 34 -15 28 -15 29 24 66 22 20 44 37 49 37 4 0 18 21 29 46 15 31
25 42 32 35 7 -7 6 -15 -2 -25 -11 -13 -10 -18 2 -31 9 -8 20 -15 26 -15 14 0
14 -13 -1 -28 -6 -6 -13 -21 -15 -32 -2 -16 3 -20 25 -20 34 0 54 13 51 31 -2
15 7 46 22 69 5 8 21 39 34 67 14 29 34 58 45 65 11 7 20 21 20 30 0 10 5 18
10 18 17 0 11 28 -7 34 -14 4 -14 4 2 3 11 -1 25 2 31 6 16 10 5 57 -14 57
-13 0 -14 2 -3 13 10 10 15 8 26 -7 14 -18 15 -18 25 8 5 15 10 36 10 47 0 10
4 19 10 19 5 0 12 17 16 38 4 20 13 46 20 57 6 11 20 54 29 95 9 41 20 82 24
90 4 8 14 40 21 70 7 30 24 88 36 127 25 78 30 111 39 268 5 88 10 150 19 260
2 17 6 37 10 46 4 9 5 55 3 103 -2 47 -1 88 3 91 11 7 9 85 -3 85 -5 0 -7 16
-4 39 2 22 0 44 -5 49 -20 20 -1 43 28 36 20 -5 25 -3 22 7 -3 8 -16 14 -29
14 -15 0 -23 5 -21 14 2 7 -6 20 -18 28 -26 18 -26 38 0 56 20 14 20 15 2 19
-15 4 -19 13 -16 36 2 17 -1 34 -7 38 -6 3 -7 19 -4 35 4 18 2 29 -4 29 -6 0
-8 7 -5 15 4 9 0 15 -10 15 -20 0 -21 19 -1 26 8 4 15 14 15 23 0 9 5 22 12
29 9 9 8 12 -5 12 -9 0 -27 10 -41 23 -44 40 -55 47 -77 47 -22 0 -22 0 -3 15
19 15 19 16 -3 31 -13 9 -23 23 -23 30 0 8 -5 14 -11 14 -13 0 -1 155 16 214
11 37 18 43 65 61 30 11 72 38 95 60 44 44 124 144 146 186 8 15 31 60 52 100
21 41 46 80 55 87 8 6 36 12 60 12 38 0 43 2 37 18 -3 9 -9 31 -12 47 -3 17
-11 36 -17 44 -7 9 -9 45 -6 100 8 143 3 322 -9 334 -6 6 -11 18 -11 26 0 9
-14 36 -31 61 l-31 46 -72 -4 c-39 -2 -81 -10 -94 -19 -21 -13 -26 -13 -43 3
-10 9 -19 25 -19 34 0 9 -5 21 -11 27 -7 7 -7 22 -1 49 6 22 13 75 17 119 4
44 11 88 17 98 15 29 26 171 17 219 -4 25 -3 87 4 146 11 102 11 102 38 102
19 0 30 6 34 21 4 11 18 24 32 30 32 12 33 12 33 -9 0 -10 7 -27 15 -38 8 -10
15 -31 15 -46 0 -16 5 -28 10 -28 6 0 10 7 10 15 0 42 58 118 91 120 19 2 21
-5 34 -93 6 -35 10 -42 24 -37 18 5 81 -21 93 -39 3 -5 9 7 13 27 4 20 13 41
21 48 8 6 14 19 14 28 0 9 4 22 9 30 8 12 12 12 24 3 12 -10 16 -8 22 15 l7
28 10 -25 c5 -13 6 -41 3 -61 -5 -30 -2 -42 13 -57 20 -20 35 -20 541 -21 286
-1 526 -3 533 -5 54 -17 68 -16 68 4 0 12 -8 35 -17 53 -9 18 -16 36 -15 41 2
4 -1 13 -7 20 -8 10 -15 78 -12 119 2 27 17 20 30 -13 6 -16 16 -44 23 -62 12
-31 93 -118 110 -118 4 0 8 7 8 15 0 8 7 15 15 15 8 0 15 -5 15 -11 0 -5 5 -7
11 -3 8 5 8 9 -1 14 -7 4 -10 12 -6 18 3 6 0 13 -6 15 -8 4 -9 6 -2 6 6 1 17
-5 23 -13 15 -18 59 -9 66 14 3 9 2 26 -1 36 -4 10 -4 16 1 12 4 -4 11 -22 16
-40 5 -23 7 -8 5 49 l-3 83 -58 65 c-130 149 -249 273 -306 322 -72 61 -71 60
-339 68 -102 2 -235 8 -297 11 l-112 7 2 26 c2 25 5 26 87 32 47 4 96 11 110
16 16 6 61 6 124 0 58 -6 101 -6 105 -1 3 5 18 15 34 21 15 7 27 17 27 22 0
13 -53 6 -58 -8 -2 -6 -26 -11 -53 -11 -48 0 -49 1 -49 30 0 29 1 30 50 30 28
0 50 4 50 9 0 9 -48 47 -169 133 -64 45 -69 47 -138 47 -39 1 -75 6 -78 11 -4
6 -10 8 -14 6 -4 -3 -21 -1 -37 3 -32 9 -29 12 51 33 l49 13 -74 48 c-160 103
-596 310 -785 373 -55 18 -140 47 -190 64 -289 99 -740 185 -1095 210 -182 12
-217 12 -225 0z m929 -356 c23 -9 24 -224 1 -224 -8 0 -15 5 -15 10 0 6 -16
10 -36 10 -31 0 -35 2 -29 21 5 14 1 25 -10 33 -11 8 -18 29 -20 56 -2 37 2
49 26 72 27 27 52 34 83 22z m-2145 -245 c-19 -12 -24 -2 -8 17 9 11 14 13 17
4 3 -7 -2 -16 -9 -21z m3441 -499 c0 -5 -6 -10 -14 -10 -8 0 -18 5 -21 10 -3
6 3 10 14 10 12 0 21 -4 21 -10z m-1906 -110 c51 -8 63 -14 89 -46 27 -32 32
-34 42 -20 11 14 14 13 35 -10 13 -13 30 -22 37 -20 15 6 65 -33 58 -44 -3 -4
4 -15 14 -24 15 -14 18 -28 15 -72 -2 -30 0 -54 5 -54 5 0 12 -12 16 -27 l7
-28 10 28 c5 15 13 27 18 27 14 0 22 -53 9 -61 -9 -5 -7 -16 9 -43 12 -20 19
-43 16 -51 -4 -8 1 -33 10 -55 11 -29 14 -56 10 -94 l-6 -54 51 -38 c28 -21
51 -41 51 -44 0 -4 10 -17 23 -30 12 -14 22 -37 22 -53 1 -27 0 -27 -45 -21
-25 3 -70 14 -100 25 -51 17 -62 18 -125 6 -78 -15 -242 -12 -263 5 -26 22
-143 -6 -165 -39 -4 -7 -14 -10 -23 -6 -8 3 -25 -3 -37 -14 -12 -11 -30 -23
-39 -26 -10 -4 -18 -13 -18 -21 0 -8 -5 -16 -12 -18 -7 -3 -12 -21 -11 -43 1
-24 -6 -48 -19 -66 -16 -21 -20 -42 -20 -98 1 -39 5 -78 10 -88 5 -10 15 -45
22 -78 7 -33 17 -65 22 -71 4 -6 12 -39 16 -73 7 -49 6 -64 -5 -68 -7 -3 -13
-12 -13 -20 0 -9 6 -13 15 -9 10 4 18 -6 26 -35 10 -32 14 -37 21 -24 5 9 6
30 3 47 -6 23 -4 29 6 26 8 -3 14 -14 14 -24 1 -11 12 -38 25 -59 l25 -40 3
39 c2 21 -1 43 -7 49 -6 6 -11 23 -11 38 0 15 -5 31 -12 35 -8 5 -6 9 7 14 19
7 21 11 31 68 7 35 32 43 54 17 7 -8 18 -15 25 -15 8 0 35 -11 62 -24 85 -42
146 -59 233 -63 69 -4 96 0 145 17 76 27 160 50 185 50 14 0 20 -7 20 -21 0
-11 4 -17 10 -14 6 4 8 14 5 23 -3 12 4 21 26 31 30 13 33 12 50 -10 14 -18
19 -42 19 -91 0 -37 -5 -70 -10 -73 -6 -4 -9 -19 -8 -33 2 -20 -1 -27 -13 -26
-11 1 -15 -5 -12 -16 3 -10 0 -21 -6 -24 -7 -5 -7 -13 2 -26 10 -17 8 -24 -16
-45 -15 -14 -27 -34 -27 -45 0 -10 -4 -22 -10 -25 -5 -3 -10 -30 -10 -60 0
-47 -3 -54 -22 -57 -27 -4 -36 -28 -11 -29 12 -1 10 -3 -7 -8 -14 -4 -26 -13
-26 -21 -1 -8 -2 -21 -3 -28 0 -6 -6 -11 -12 -10 -6 2 -14 -4 -18 -12 -5 -8
-13 -24 -18 -36 -6 -11 -9 -32 -6 -46 5 -28 -24 -48 -39 -26 -5 9 -8 7 -8 -7
0 -20 -39 -79 -40 -60 0 5 -9 -9 -20 -30 -12 -23 -18 -50 -15 -62 7 -30 -6
-29 -45 3 -21 18 -34 24 -41 17 -10 -10 -78 10 -127 36 -9 6 -50 19 -90 31
-46 13 -75 27 -79 38 -3 9 -15 24 -26 33 -16 13 -18 23 -13 53 4 20 10 36 15
36 23 0 41 111 25 154 -7 19 -45 21 -62 4 -9 -9 -12 -8 -12 5 0 22 -6 21 -37
-3 -28 -22 -51 -17 -32 6 10 12 7 20 -18 42 -48 45 -103 21 -139 -61 -21 -47
-59 -82 -89 -82 -12 0 -34 18 -55 46 -25 32 -40 44 -50 39 -8 -4 -35 -14 -60
-21 -32 -10 -53 -26 -78 -59 -19 -25 -41 -47 -49 -48 -25 -6 -9 -36 27 -53 45
-22 110 -15 117 12 3 11 12 19 19 19 8 0 14 5 14 10 0 6 7 10 16 10 8 0 13 -4
10 -9 -10 -15 4 -39 26 -44 26 -7 18 -32 -10 -32 -12 0 -28 -9 -36 -20 -15
-20 -15 -20 -16 3 0 12 -4 22 -10 22 -12 0 -12 -11 -4 -62 6 -31 11 -38 30
-38 13 0 28 -9 34 -20 12 -23 66 -53 80 -45 7 4 6 14 -1 26 -12 24 -5 49 14
49 7 0 23 -9 36 -21 16 -15 30 -19 47 -15 13 3 34 9 47 12 16 4 31 -2 52 -23
l30 -28 -25 -3 c-46 -4 -105 -24 -122 -40 -16 -14 -20 -14 -37 2 -15 14 -20
14 -30 2 -9 -10 -28 -12 -76 -8 -71 5 -130 -7 -213 -45 -29 -14 -61 -23 -71
-20 -11 2 -31 -6 -47 -19 -35 -28 -46 -30 -43 -6 12 77 -65 93 -134 28 -15
-14 -30 -26 -33 -26 -3 0 -14 -10 -25 -22 -21 -26 -23 -58 -5 -108 12 -32 17
-35 60 -41 33 -3 64 1 99 13 28 10 61 18 73 18 11 0 32 10 45 21 60 53 102 63
314 72 324 14 309 14 313 -5 2 -12 -5 -21 -21 -27 -14 -6 -28 -15 -32 -20 -3
-6 -14 -11 -25 -11 -13 0 -17 -5 -13 -20 5 -17 14 -20 62 -20 31 0 71 4 89 10
29 8 32 7 22 -5 -7 -8 -18 -15 -25 -15 -7 0 -18 -6 -24 -14 -14 -17 -58 -24
-229 -36 -75 -5 -148 -13 -162 -19 -14 -5 -21 -10 -16 -10 5 -1 2 -9 -6 -18
-9 -10 -19 -29 -23 -41 -6 -21 -4 -23 14 -17 18 5 21 2 21 -19 0 -25 20 -38
20 -13 1 7 6 5 14 -5 7 -10 19 -18 25 -18 7 0 11 -8 9 -17 -3 -19 4 -20 65 -5
22 6 39 6 43 1 3 -5 12 -9 20 -9 8 0 13 4 10 9 -8 13 4 42 15 36 4 -3 6 -12 2
-20 -3 -9 1 -15 11 -15 8 0 13 6 11 13 -6 17 26 56 32 40 6 -18 32 -16 39 2 4
8 19 15 35 15 15 0 36 9 46 19 10 11 30 22 45 26 15 4 29 13 32 21 3 8 20 14
41 14 28 0 35 4 35 20 0 13 9 22 27 27 16 3 40 19 55 34 58 57 177 38 140 -22
-7 -11 -9 -27 -3 -41 10 -28 4 -48 -14 -48 -20 0 -30 -21 -14 -31 11 -7 9 -9
-6 -9 -22 0 -65 -26 -65 -38 0 -4 12 -8 27 -7 31 0 45 -31 21 -46 -10 -7 -10
-9 2 -9 12 0 15 -9 12 -41 -3 -22 0 -45 6 -51 14 -14 2 -49 -17 -46 -10 2 -16
-4 -17 -17 -2 -30 -21 -72 -36 -79 -7 -3 1 -2 17 1 l30 6 -19 -21 c-14 -17
-22 -19 -32 -11 -8 6 -20 9 -29 6 -8 -4 -17 -2 -21 4 -3 6 -16 -1 -29 -16 -30
-31 -60 -34 -52 -5 4 17 2 20 -14 15 -13 -4 -19 -2 -19 9 0 19 -2 19 -35 4
-16 -7 -28 -23 -32 -40 -6 -32 -18 -43 -35 -32 -25 16 -70 12 -88 -8 -22 -24
-47 -18 -58 12 -7 18 -10 15 -26 -24 -16 -38 -21 -44 -37 -36 -26 14 -29 13
-29 -15 0 -28 -17 -34 -27 -9 -12 31 -93 -9 -93 -46 0 -24 -11 -32 -27 -19
-10 9 -18 8 -31 -3 -21 -18 -82 -23 -82 -7 0 6 -9 9 -20 6 -12 -3 -20 0 -20 8
0 16 -46 14 -77 -3 -19 -10 -20 -9 -16 8 7 25 -5 26 -23 3 -12 -16 -13 -15
-14 12 l-1 30 -24 -28 c-23 -26 -25 -27 -35 -7 -11 20 -51 23 -78 6 -8 -5 -12
1 -12 18 0 16 -6 26 -15 26 -8 0 -15 5 -15 10 0 6 -7 10 -15 10 -8 0 -15 5
-15 10 0 6 -18 10 -41 10 -54 0 -139 37 -139 60 0 10 -9 20 -20 23 -11 3 -23
13 -27 24 -4 10 -12 23 -19 28 -6 6 -17 35 -24 65 -7 30 -19 61 -28 67 -8 7
-12 16 -7 20 4 5 10 2 12 -4 5 -15 33 -17 33 -3 0 6 -7 10 -15 10 -8 0 -15 5
-15 11 0 6 -7 8 -15 5 -8 -3 -21 -9 -29 -12 -9 -3 -17 3 -21 15 -4 14 -14 20
-28 18 -19 -2 -21 2 -18 32 2 27 0 33 -12 28 -19 -7 -29 16 -21 51 5 26 5 26
-10 8 -15 -19 -16 -18 -27 12 -13 39 -29 42 -29 5 0 -35 -14 -20 -30 32 -7 22
-21 54 -31 71 -11 20 -25 93 -39 195 -11 90 -32 227 -46 304 -25 140 -39 239
-49 369 -4 39 -8 73 -10 77 -11 16 -5 279 9 449 16 195 17 200 36 270 7 25 12
56 12 70 0 14 8 45 19 69 13 27 22 74 25 125 8 123 8 126 22 126 6 0 12 5 12
10 0 19 40 50 65 50 17 0 25 -5 25 -18 0 -37 123 -76 158 -49 6 5 12 7 12 3 0
-4 14 0 30 9 17 9 30 20 30 25 0 6 7 10 16 10 8 0 12 5 9 10 -3 6 1 10 9 10 8
0 44 28 79 63 36 34 77 71 91 81 14 10 26 24 26 31 0 6 11 22 25 35 14 13 25
27 25 32 0 17 121 118 143 118 4 0 20 9 35 19 25 18 123 44 322 85 99 21 212
35 282 36 31 0 60 5 64 11 4 7 19 8 38 4 17 -3 58 -10 90 -15z m401 -349 c3
-5 1 -12 -5 -16 -5 -3 -10 1 -10 9 0 18 6 21 15 7z m1812 -74 c21 -15 3 -37
-26 -31 -46 10 -51 13 -45 29 7 17 49 18 71 2z m838 -6 c8 -15 -6 -18 -52 -13
-24 2 -40 8 -37 13 7 12 81 12 89 0z m-2784 -636 c29 -4 46 -12 46 -20 0 -10
-5 -11 -16 -6 -9 5 -42 12 -74 15 -34 5 -55 11 -51 18 3 5 16 7 28 5 11 -3 42
-9 67 -12z m0 -62 c6 -6 -9 -8 -48 -5 -82 6 -105 24 -25 19 34 -2 67 -8 73
-14z m-211 -140 c0 -11 -4 -11 -20 -1 -11 7 -20 19 -20 25 0 11 4 11 20 1 11
-7 20 -19 20 -25z m23 -70 c28 -16 61 -28 72 -29 71 -3 79 -4 68 -15 -15 -15
-173 5 -188 23 -5 7 -14 13 -20 13 -5 1 -32 5 -59 9 -59 10 -43 26 27 26 33 0
64 -9 100 -27z m37 7 c0 -5 -4 -10 -10 -10 -5 0 -10 5 -10 10 0 6 5 10 10 10
6 0 10 -4 10 -10z m940 -15 c0 -14 -4 -25 -9 -25 -10 0 -21 36 -13 44 12 13
22 5 22 -19z m115 -156 c14 -27 27 -83 56 -243 5 -28 5 -76 0 -111 -17 -121
-59 -178 -132 -180 -30 -1 -46 -7 -53 -20 -20 -35 -55 -65 -76 -65 -30 0 -36
27 -10 48 24 19 35 68 21 87 -7 8 6 132 15 143 9 11 47 -14 60 -40 19 -36 12
-74 -19 -98 -12 -10 -19 -21 -16 -25 12 -11 57 17 69 44 6 14 18 39 26 54 8
16 14 46 14 67 0 41 -40 174 -58 192 -7 7 -12 18 -12 25 0 7 -4 13 -10 13 -38
0 57 124 107 139 1 1 10 -13 18 -30z m197 -81 c-3 -102 -60 -364 -92 -423 -9
-16 -23 -48 -30 -70 -15 -47 -60 -115 -110 -167 -19 -20 -41 -43 -48 -52 -7
-9 -28 -16 -47 -16 -19 0 -45 -5 -59 -11 -54 -25 -78 44 -30 84 14 12 43 36
63 52 20 17 55 39 79 50 83 36 180 209 173 309 -2 31 0 38 12 33 19 -7 27 23
31 115 3 57 20 140 33 161 12 20 26 -17 25 -65z m-83 -118 c1 -54 -13 -84 -22
-48 -9 32 -9 113 0 122 11 11 22 -24 22 -74z m-3461 -171 c17 -7 22 -16 22
-43 0 -84 -95 -90 -148 -11 -12 19 -27 35 -32 35 -18 0 -10 17 12 27 24 10
108 6 146 -8z m1692 -158 c0 -6 -4 -13 -10 -16 -5 -3 -10 1 -10 9 0 9 5 16 10
16 6 0 10 -4 10 -9z m-1559 -73 c-9 -25 -32 -31 -38 -10 -3 6 2 12 11 12 9 0
16 5 16 10 0 6 4 10 10 10 6 0 6 -9 1 -22z m2549 18 c0 -3 -4 -8 -10 -11 -5
-3 -10 -1 -10 4 0 6 5 11 10 11 6 0 10 -2 10 -4z m-3711 -118 c15 5 41 -23 41
-44 0 -7 -10 -16 -22 -20 -13 -4 -25 -10 -28 -15 -3 -5 -16 -6 -28 -2 -24 6
-29 38 -15 103 l6 33 16 -30 c10 -18 22 -28 30 -25z m234 -60 c32 1 21 -51
-18 -87 -45 -41 -69 -38 -73 9 -3 41 33 94 58 84 8 -4 23 -6 33 -6z m2472
-107 c8 -15 -29 -31 -70 -31 -24 0 -35 4 -33 12 8 22 91 37 103 19z m165 -1
c8 -5 11 -12 8 -16 -10 -9 -38 3 -38 16 0 12 10 13 30 0z m-110 -9 c0 -14 -18
-23 -31 -15 -8 4 -7 9 2 15 18 11 29 11 29 0z m-2950 -41 c0 -5 7 -10 16 -10
8 0 12 -4 9 -10 -9 -15 -62 -12 -68 4 -6 14 6 24 31 25 6 1 12 -3 12 -9z m377
-35 c1 -26 -4 -38 -18 -45 -24 -14 -39 -5 -39 22 0 22 27 56 45 57 6 1 11 -15
12 -34z m892 -44 c17 -9 20 -16 12 -24 -6 -6 -11 -19 -11 -28 0 -9 -16 -27
-35 -40 -29 -20 -34 -29 -30 -50 10 -43 -15 -55 -74 -35 -28 9 -59 16 -70 16
-49 0 -98 97 -71 140 21 34 225 50 279 21z m219 -162 c-2 -6 -8 -10 -13 -10
-5 0 -11 4 -13 10 -2 6 4 11 13 11 9 0 15 -5 13 -11z m-1788 -48 c0 -10 -34
-41 -46 -41 -14 0 -44 27 -44 39 0 5 20 8 45 7 25 0 45 -3 45 -5z m1330 -57
c81 -3 126 -10 152 -23 34 -16 38 -17 53 -2 18 19 132 19 219 1 36 -7 61 -8
79 -1 18 7 45 7 84 -1 65 -12 103 -13 149 -3 39 9 51 -7 33 -42 -11 -20 -19
-24 -41 -19 -15 3 -30 1 -34 -5 -4 -7 -21 -8 -48 -4 -34 7 -97 13 -166 16 -8
0 -28 -2 -45 -5 -102 -18 -217 -10 -236 17 -4 5 -24 -3 -45 -17 -36 -24 -47
-25 -159 -26 -66 0 -131 0 -145 -1 -48 -3 -65 -2 -105 5 -37 6 -80 10 -161 14
-29 2 -114 57 -114 75 0 4 15 15 33 23 32 14 150 14 497 -2z m-1044 -159 c-26
-19 -47 -19 -40 0 4 8 18 15 33 15 25 -1 25 -1 7 -15z m1174 -14 c7 -14 7 -22
-1 -26 -6 -4 -8 -13 -6 -20 6 -13 -18 -37 -46 -48 -23 -9 -21 -27 3 -27 20 0
20 0 -1 -21 -20 -20 -66 -19 -54 2 4 5 -20 9 -54 9 -46 0 -61 -4 -61 -14 0
-18 -45 -29 -68 -17 -9 5 -55 7 -102 5 -46 -2 -87 1 -90 6 -3 5 -20 10 -38 12
-49 4 -58 21 -32 59 19 26 27 30 54 25 17 -3 63 -8 101 -12 39 -4 75 -11 82
-16 7 -5 17 -7 23 -3 16 10 50 -4 50 -21 0 -8 5 -14 10 -14 6 0 10 7 10 15 0
10 10 15 26 15 22 0 25 4 21 22 -11 39 37 71 118 81 17 2 33 5 37 6 4 0 12 -8
18 -18z m585 -17 c33 -9 63 -21 67 -27 10 -17 -47 -37 -103 -37 -69 0 -111 44
-76 79 6 7 21 10 32 7 11 -3 47 -12 80 -22z m-2832 -191 c4 -2 7 -15 7 -28 0
-30 20 -76 40 -92 11 -9 27 -5 72 18 32 16 63 29 71 29 18 0 64 -49 75 -80 9
-25 -6 -79 -33 -110 -7 -9 -10 -30 -8 -51 4 -32 9 -38 43 -48 36 -11 90 -9
132 5 33 10 94 -64 100 -121 3 -25 2 -45 -3 -45 -5 0 -9 -9 -9 -19 0 -11 -5
-23 -11 -26 -6 -4 -8 -13 -5 -21 3 -8 0 -11 -10 -7 -9 3 -14 -1 -14 -11 0 -12
-6 -15 -24 -10 -28 7 -68 -11 -65 -29 3 -15 -11 -48 -27 -64 -7 -7 -14 -18
-16 -24 -2 -7 -29 -13 -61 -14 -52 -2 -61 -6 -93 -39 -41 -42 -52 -42 -76 0
-23 40 -31 416 -9 457 17 31 8 79 -14 71 -8 -3 -22 1 -30 10 -9 9 -23 16 -30
16 -8 0 -17 9 -20 20 -8 25 -42 44 -79 45 -35 0 -56 27 -40 52 13 22 7 43 -12
43 -8 0 -14 4 -14 9 0 5 -3 16 -6 24 -3 9 4 25 16 37 18 18 28 20 83 14 34 -4
65 -9 70 -11z m3467 -63 c0 -5 -4 -10 -10 -10 -5 0 -10 5 -10 10 0 6 5 10 10
10 6 0 10 -4 10 -10z m-2757 -25 c24 -12 32 -12 62 1 52 21 65 18 65 -15 0
-34 -13 -41 -70 -37 -30 2 -47 -2 -58 -14 -10 -10 -32 -25 -49 -34 -18 -9 -53
-37 -78 -61 -52 -52 -93 -60 -114 -22 -10 19 -9 31 4 65 10 23 21 42 25 42 5
0 11 8 14 18 9 26 94 71 136 72 19 0 47 -7 63 -15z m3468 -8 c-13 -13 -26 -3
-16 12 3 6 11 8 17 5 6 -4 6 -10 -1 -17z m-381 -57 c0 -5 -2 -10 -4 -10 -3 0
-8 5 -11 10 -3 6 -1 10 4 10 6 0 11 -4 11 -10z m-3128 -135 c24 -6 25 -9 17
-38 -14 -50 -67 -97 -109 -97 -35 0 -36 1 -46 50 -9 45 -8 52 10 69 21 20 59
30 86 25 8 -2 27 -6 42 -9z m1641 -166 c-13 -13 -43 -5 -43 10 0 13 33 20 45
9 5 -5 5 -12 -2 -19z m1205 -9 c41 -38 42 -50 1 -16 -17 14 -35 26 -40 26 -5
0 -9 5 -9 10 0 17 13 11 48 -20z m-2312 -7 c7 -10 14 -28 14 -39 0 -17 -7 -22
-39 -27 -21 -2 -68 -19 -104 -36 -76 -37 -93 -38 -102 -10 -5 15 1 29 22 51
37 39 71 56 135 67 29 5 55 9 57 10 2 0 10 -7 17 -16z m1134 -13 c-19 -12 -47
-13 -54 -2 -3 5 11 9 32 10 27 1 33 -1 22 -8z m1185 -40 c3 -5 1 -10 -4 -10
-6 0 -11 5 -11 10 0 6 2 10 4 10 3 0 8 -4 11 -10z m270 -189 c-3 -5 -1 -12 5
-16 13 -8 13 -25 0 -25 -5 0 -10 7 -10 15 0 8 -7 15 -16 15 -8 0 -12 5 -9 10
3 6 13 10 21 10 8 0 13 -4 9 -9z m35 -71 c-13 -9 -13 -11 0 -20 21 -14 30 -12
30 5 0 8 7 15 15 15 8 0 15 -5 15 -11 0 -7 10 -9 28 -5 17 4 22 3 14 -2 -10
-7 -3 -11 23 -16 29 -6 40 -14 48 -36 16 -42 87 -75 129 -61 17 6 39 11 49 11
26 0 24 -27 -2 -35 -14 -5 -17 -10 -10 -19 12 -14 3 -30 -22 -39 -10 -4 -15
-11 -12 -17 15 -24 -52 -8 -81 19 -16 16 -40 32 -53 36 -14 4 -20 12 -17 21 3
7 -1 17 -8 21 -7 5 -16 16 -19 26 -5 12 -13 16 -26 12 -12 -3 -21 0 -25 10 -3
9 -13 15 -22 13 -23 -4 -29 19 -7 26 10 3 6 4 -9 2 -16 -2 -28 0 -28 4 0 4
-11 11 -25 14 -27 7 -34 26 -10 26 8 0 15 8 15 17 0 14 3 14 12 5 10 -10 10
-15 -2 -22z m1680 -21 c0 -5 -7 -9 -15 -9 -9 0 -12 6 -9 15 6 15 24 11 24 -6z
m-1660 -79 c0 -5 -2 -10 -4 -10 -3 0 -8 5 -11 10 -3 6 -1 10 4 10 6 0 11 -4
11 -10z m297 -6 c-3 -3 -12 -4 -19 -1 -8 3 -5 6 6 6 11 1 17 -2 13 -5z m1321
-36 c-3 -7 -13 -15 -24 -17 -16 -3 -17 -1 -5 13 16 19 34 21 29 4z m-58 -137
c0 -23 -16 -36 -25 -21 -9 14 1 40 15 40 5 0 10 -9 10 -19z m-67 -125 c6 -16
-2 -28 -14 -20 -12 7 -11 34 0 34 5 0 11 -6 14 -14z m-1326 -182 c-3 -3 -12
-4 -19 -1 -8 3 -5 6 6 6 11 1 17 -2 13 -5z m-191 -135 c7 -12 -15 -31 -31 -26
-5 2 -11 11 -13 20 -4 19 32 24 44 6z m1189 -159 c3 -5 1 -10 -4 -10 -6 0 -11
5 -11 10 0 6 2 10 4 10 3 0 8 -4 11 -10z m65 -90 c0 -5 -5 -10 -11 -10 -5 0
-7 5 -4 10 3 6 8 10 11 10 2 0 4 -4 4 -10z m-140 -18 c0 -5 -13 -21 -30 -35
-35 -32 -40 -19 -7 17 23 25 37 32 37 18z m-1240 -12 c0 -5 -7 -10 -15 -10 -8
0 -15 5 -15 10 0 6 7 10 15 10 8 0 15 -4 15 -10z m1332 -32 c-6 -6 -15 -8 -19
-4 -4 4 -1 11 7 16 8 5 17 7 19 4 3 -2 -1 -10 -7 -16z m101 -8 c-3 -11 0 -20
6 -20 6 0 11 7 11 15 0 8 2 15 4 15 2 0 11 3 20 6 9 3 16 1 16 -5 0 -6 -7 -11
-15 -11 -9 0 -12 -6 -9 -15 4 -10 0 -15 -14 -15 -11 0 -23 -7 -26 -16 -6 -15
-8 -15 -25 0 -18 17 -18 18 3 41 26 30 36 32 29 5z m-293 -40 c0 -5 -5 -10
-11 -10 -5 0 -7 5 -4 10 3 6 8 10 11 10 2 0 4 -4 4 -10z m120 -25 c-7 -9 -15
-13 -17 -11 -7 7 7 26 19 26 6 0 6 -6 -2 -15z m-220 -9 c0 -3 -4 -8 -10 -11
-5 -3 -10 -1 -10 4 0 6 5 11 10 11 6 0 10 -2 10 -4z m-48 -58 c-6 -6 -15 -8
-19 -4 -4 4 -1 11 7 16 8 5 17 7 19 4 3 -2 -1 -10 -7 -16z m82 7 c-6 -16 -34
-21 -34 -7 0 13 11 22 26 22 8 0 11 -6 8 -15z m140 1 c-3 -8 -14 -16 -26 -19
-19 -5 -19 -5 -2 14 20 22 36 25 28 5z m-56 -48 c-3 -7 -13 -15 -24 -17 -16
-3 -17 -1 -5 13 16 19 34 21 29 4z m-58 -36 c0 -13 -67 -62 -85 -62 -17 0 0
23 33 44 40 27 52 31 52 18z m-234 -18 c-4 -9 -1 -23 5 -30 8 -9 8 -14 1 -14
-13 0 -26 36 -17 50 10 16 18 12 11 -6z m54 -14 c0 -5 -4 -10 -10 -10 -5 0
-10 5 -10 10 0 6 5 10 10 10 6 0 10 -4 10 -10z m-130 -10 c0 -5 -4 -10 -10
-10 -5 0 -10 5 -10 10 0 6 5 10 10 10 6 0 10 -4 10 -10z m185 -40 c3 -5 -1
-10 -10 -10 -9 0 -13 5 -10 10 3 6 8 10 10 10 2 0 7 -4 10 -10z m-35 -30 c0
-5 -4 -10 -9 -10 -6 0 -13 5 -16 10 -3 6 1 10 9 10 9 0 16 -4 16 -10z m-40
-19 c0 -9 -61 -41 -79 -41 -24 0 -9 19 19 25 17 4 30 11 30 16 0 5 7 9 15 9 8
0 15 -4 15 -9z m-110 -39 c0 -13 -12 -22 -22 -16 -10 6 -1 24 13 24 5 0 9 -4
9 -8z m-420 -48 c0 -8 -4 -12 -10 -9 -5 3 -10 10 -10 16 0 5 5 9 10 9 6 0 10
-7 10 -16z m103 -11 c-7 -2 -19 -2 -25 0 -7 3 -2 5 12 5 14 0 19 -2 13 -5z
m35 -126 c2 -12 -3 -17 -17 -17 -12 0 -21 6 -21 13 0 31 32 34 38 4z"/>
<path d="M4225 7160 c-49 -4 -110 -13 -135 -19 -25 -7 -76 -16 -115 -20 -38
-5 -99 -20 -134 -35 -36 -14 -75 -26 -88 -26 -24 0 -33 -25 -11 -32 7 -3 9
-12 5 -22 -5 -13 -14 -16 -31 -12 -17 4 -26 1 -30 -10 -11 -30 -6 -53 14 -59
11 -3 20 -13 20 -21 0 -8 7 -14 16 -14 10 0 14 6 10 15 -3 9 0 15 10 15 8 0
12 5 9 10 -3 6 -2 10 4 10 5 0 12 -4 16 -9 8 -15 118 0 131 17 7 10 18 13 30
8 16 -6 16 -9 4 -16 -12 -8 -10 -10 8 -10 12 0 22 5 22 11 0 14 93 4 98 -11 2
-5 22 -10 45 -11 l42 -1 -45 -15 c-124 -41 -217 -78 -232 -90 -9 -8 -22 -13
-30 -12 -7 1 -23 1 -36 0 -19 -1 -22 -5 -16 -23 6 -20 5 -21 -10 -9 -9 8 -18
12 -19 10 -48 -63 -58 -101 -34 -132 9 -13 33 -17 112 -18 55 -1 108 -7 119
-12 12 -6 22 -5 29 2 8 8 6 11 -8 11 -11 0 -28 7 -38 15 -18 13 -17 14 5 17
19 2 24 10 26 41 4 48 19 44 51 -12 l24 -43 81 5 c97 7 171 14 251 27 33 6 64
10 69 10 4 0 6 6 3 13 -3 8 -1 20 4 28 6 11 12 11 27 3 16 -10 20 -5 36 45 13
43 16 71 11 112 -3 30 -7 83 -8 119 -2 77 -13 110 -35 110 -8 0 -34 9 -57 20
-51 25 -105 30 -220 20z m-87 -302 c-3 -7 -24 -16 -47 -20 -23 -4 -72 -23
-109 -43 -73 -38 -91 -43 -71 -19 37 45 238 117 227 82z m143 -161 c-17 -17
-22 -2 -9 29 11 28 12 29 16 5 2 -13 -1 -28 -7 -34z"/>
<path d="M4335 6623 c-25 -5 -65 -24 -85 -39 -22 -17 -136 -52 -200 -62 -54
-8 -54 -9 -27 -20 43 -18 130 -14 201 9 47 15 78 34 115 70 50 48 50 54 -4 42z"/>
<path d="M5030 6269 c0 -5 5 -7 10 -4 6 3 10 8 10 11 0 2 -4 4 -10 4 -5 0 -10
-5 -10 -11z"/>
<path d="M4508 5825 c-11 -11 8 -60 25 -63 9 -2 17 2 17 10 -1 18 -34 60 -42
53z"/>
<path d="M3870 5169 c0 -5 5 -7 10 -4 6 3 10 8 10 11 0 2 -4 4 -10 4 -5 0 -10
-5 -10 -11z"/>
<path d="M4571 4771 c-8 -6 -11 -16 -7 -27 6 -16 8 -16 23 -1 20 19 6 41 -16
28z"/>
<path d="M8160 7456 c13 -13 13 -39 0 -31 -5 3 -5 -6 1 -24 12 -33 -2 -71 -25
-71 -9 0 -15 -21 -20 -66 -6 -57 -4 -70 15 -102 13 -20 23 -38 24 -39 1 -1 18
2 38 8 35 9 63 39 50 53 -3 3 -1 6 7 6 9 0 11 14 6 58 -12 114 -18 144 -32
149 -8 3 -14 18 -14 33 0 23 -5 28 -30 32 -21 3 -27 1 -20 -6z m16 -293 c-11
-11 -19 6 -11 24 8 17 8 17 12 0 3 -10 2 -21 -1 -24z"/>
<path d="M8318 7393 c-19 -5 -24 -38 -8 -48 6 -3 10 2 10 12 0 11 5 24 12 31
7 7 10 11 8 11 -3 -1 -13 -3 -22 -6z"/>
<path d="M7971 7257 c-9 -9 -147 -12 -572 -12 -485 0 -561 -2 -569 -15 -6 -9
-9 -95 -7 -200 l2 -185 540 -5 c496 -5 543 -6 568 -23 21 -14 27 -25 27 -55 0
-57 -16 -71 -98 -88 -58 -12 -84 -13 -126 -4 -55 11 -86 6 -86 -14 0 -7 9 -31
20 -54 11 -22 20 -50 20 -60 0 -14 12 -24 45 -34 25 -9 45 -12 45 -7 0 9 58
39 75 39 7 0 15 9 18 20 5 21 5 21 44 -1 21 -11 54 -33 73 -47 19 -15 38 -26
43 -24 4 1 7 -5 7 -13 0 -9 -8 -18 -17 -21 -10 -3 -26 -10 -35 -15 -25 -13
-68 -11 -68 4 -1 12 -80 67 -98 67 -12 0 -24 -28 -17 -40 3 -5 -8 -11 -25 -15
-33 -7 -36 -18 -18 -77 13 -45 7 -55 -40 -64 -29 -6 -33 -4 -46 28 -8 19 -17
47 -19 62 -2 17 -13 34 -28 42 -13 7 -18 13 -10 14 9 0 11 7 6 23 -4 12 -8 31
-10 42 -1 11 -7 33 -14 48 -6 16 -11 36 -11 46 0 10 -9 26 -21 37 -20 18 -43
19 -354 22 -183 2 -348 -1 -367 -6 l-33 -8 4 -73 c3 -65 1 -74 -21 -94 -20
-19 -35 -22 -95 -22 -62 1 -76 4 -97 25 -14 13 -29 21 -32 17 -7 -6 7 -101 37
-247 10 -53 19 -124 19 -158 0 -66 12 -102 34 -102 19 0 52 40 67 82 11 33 11
40 -4 56 -9 10 -17 28 -17 40 0 28 29 62 53 62 24 0 67 -29 67 -45 0 -7 6 -18
14 -24 16 -13 39 -71 28 -70 -32 5 -43 -3 -40 -28 4 -31 28 -44 28 -14 0 29
18 36 43 15 12 -11 32 -25 45 -32 21 -12 24 -11 29 7 3 11 17 22 32 26 41 9
113 79 110 107 -4 25 19 88 31 88 3 0 10 -3 14 -7 4 -5 23 -8 41 -8 34 0 35 1
36 53 0 17 4 22 15 18 9 -3 19 -6 24 -6 12 0 5 -40 -14 -76 -9 -17 -32 -48
-51 -68 -19 -21 -35 -46 -35 -56 0 -10 -4 -22 -10 -25 -5 -3 -10 -19 -10 -34
0 -25 5 -29 38 -35 20 -3 65 -6 100 -6 35 0 72 -5 83 -11 16 -8 37 -5 95 15
41 14 94 26 119 26 40 0 45 3 46 23 1 19 3 17 15 -10 15 -36 37 -42 60 -18 16
16 66 13 134 -8 37 -11 193 -19 222 -11 19 6 19 65 -1 226 -10 86 -10 104 6
155 9 32 18 74 18 93 1 19 4 40 8 47 13 20 -1 141 -23 208 -17 50 -28 69 -50
80 -38 19 -60 53 -60 88 0 31 5 32 77 11 47 -13 38 45 -29 170 -30 56 -38 94
-28 121 10 28 -1 40 -19 22z m-615 -811 c11 -12 12 -20 2 -40 -6 -14 -17 -26
-23 -26 -7 0 -22 -9 -35 -20 -12 -11 -27 -17 -31 -14 -13 7 -1 24 16 24 11 0
13 8 8 32 -5 23 -2 34 12 45 24 17 33 16 51 -1z m612 -187 c3 -29 -31 -79 -55
-79 -12 0 -14 -7 -10 -30 5 -23 2 -32 -13 -40 -11 -6 -20 -21 -20 -33 -1 -20
-2 -21 -14 -4 -7 9 -24 16 -37 15 -21 -3 -23 1 -26 59 -4 53 -1 64 18 82 13
12 31 21 40 21 10 0 21 5 24 11 10 15 46 29 70 26 13 -1 21 -11 23 -28z m-598
-20 c0 -14 -17 -10 -23 5 -4 10 -1 13 9 9 7 -3 14 -9 14 -14z"/>
<path d="M8545 7210 c4 -6 4 -29 0 -50 -5 -32 -10 -38 -22 -32 -19 11 -59 4
-74 -14 -6 -8 -27 -14 -47 -14 -19 0 -44 -8 -54 -17 -18 -16 -19 -16 -25 5 -3
12 -8 22 -12 22 -9 0 -31 -60 -31 -84 0 -14 -7 -16 -39 -12 l-39 4 -7 -48 c-8
-55 -2 -70 25 -70 17 0 40 -26 40 -45 0 -4 -16 -5 -35 -3 -33 4 -35 2 -35 -24
0 -15 9 -51 20 -80 11 -29 20 -62 20 -73 0 -11 9 -34 19 -51 17 -28 25 -66 22
-101 -1 -6 -10 -9 -21 -6 -22 6 -60 -47 -60 -84 0 -12 -4 -25 -10 -28 -16 -10
-12 -85 10 -161 10 -39 22 -86 25 -105 14 -83 39 -136 51 -106 3 9 10 15 14
12 5 -3 79 -7 165 -9 178 -4 189 0 252 82 27 35 33 53 33 92 0 40 -4 50 -25
64 -29 19 -33 59 -10 82 19 19 66 11 91 -17 27 -30 50 -18 24 14 -5 7 -22 28
-37 47 -33 42 -34 95 -2 103 15 4 19 14 19 50 0 43 1 45 26 43 28 -3 44 -20
44 -49 0 -11 8 -35 17 -55 16 -34 17 -34 27 -13 5 12 15 20 23 17 15 -6 18 10
3 19 -5 3 -10 13 -10 21 0 7 -14 45 -31 83 -26 59 -36 71 -60 76 -30 7 -89 61
-89 81 0 6 9 21 20 34 11 13 20 25 20 28 0 18 -225 382 -237 382 -2 0 -1 -5 2
-10z m-111 -356 c38 -15 8 -96 -76 -205 l-28 -37 -35 17 c-38 18 -50 40 -41
77 5 17 13 24 29 24 13 0 29 6 36 13 10 10 15 9 25 -5 19 -26 28 -22 25 10 -3
37 21 112 37 112 7 0 19 -3 28 -6z m83 -317 c6 -7 -17 -61 -30 -69 -7 -4 -22
-8 -35 -8 -19 0 -21 4 -16 24 4 19 1 26 -15 31 -48 15 -7 36 58 29 18 -2 35
-5 38 -7z m-112 -164 c0 -25 7 -48 18 -61 16 -18 17 -23 4 -54 -15 -37 -60
-78 -84 -78 -8 0 -17 9 -20 20 -6 23 -19 26 -26 8 -3 -7 -6 -3 -6 9 -1 15 4
20 17 17 22 -5 53 15 34 23 -8 3 -4 11 13 25 28 22 33 53 10 62 -11 4 -14 13
-9 33 9 39 14 45 32 41 13 -2 17 -14 17 -45z"/>
<path d="M6512 6849 c0 -16 4 -29 9 -27 6 2 10 7 10 11 -1 4 -1 16 -1 27 0 33
-17 23 -18 -11z"/>
<path d="M3043 6796 c-4 -5 -7 -31 -8 -58 -2 -44 0 -48 22 -48 24 0 31 15 11
23 -8 4 -9 6 -2 6 6 1 17 -6 25 -15 10 -13 10 -17 -2 -25 -8 -5 -11 -9 -7 -9
4 0 24 11 44 25 20 14 45 25 55 25 17 0 17 2 -4 26 -39 46 -48 54 -65 55 -9 0
-27 2 -40 3 -13 2 -26 -2 -29 -8z"/>
<path d="M2803 6723 c-7 -2 -13 -15 -13 -28 0 -21 4 -23 50 -22 33 1 50 6 50
15 0 6 -6 12 -14 12 -8 0 -16 7 -20 15 -5 15 -29 18 -53 8z"/>
<path d="M3106 6581 c-15 -17 -17 -34 -15 -105 4 -73 7 -88 28 -110 29 -31 41
-33 41 -7 0 10 7 21 15 25 8 3 15 15 15 27 0 11 9 34 20 50 18 25 24 27 47 18
14 -5 28 -7 31 -5 10 10 -68 94 -102 110 -44 21 -59 20 -80 -3z"/>
<path d="M2823 6560 c-3 -11 -10 -20 -15 -20 -5 0 -7 -4 -4 -9 11 -17 42 0 44
25 2 29 -18 32 -25 4z"/>
<path d="M8810 6550 c0 -5 5 -10 11 -10 5 0 7 5 4 10 -3 6 -8 10 -11 10 -2 0
-4 -4 -4 -10z"/>
<path d="M2680 6515 c0 -8 5 -15 10 -15 6 0 10 7 10 15 0 8 -4 15 -10 15 -5 0
-10 -7 -10 -15z"/>
<path d="M8955 6418 c-4 -15 -14 -33 -22 -40 -13 -11 -18 -9 -31 10 -16 25
-37 30 -28 7 3 -8 2 -15 -3 -15 -13 0 -23 -142 -10 -150 8 -6 8 -13 0 -27 -5
-11 -12 -37 -14 -56 -2 -20 -9 -42 -14 -49 -5 -7 -13 -20 -16 -29 -4 -13 -1
-16 14 -12 13 4 19 0 19 -12 0 -13 5 -16 23 -11 12 4 68 12 125 18 68 8 102
16 102 24 0 18 -99 292 -120 334 l-18 35 -7 -27z"/>
<path d="M777 6362 c-99 -118 -116 -152 -132 -262 -4 -25 -10 -49 -14 -55 -23
-38 -29 -80 -17 -119 8 -23 19 -63 27 -91 7 -27 23 -68 36 -90 12 -22 23 -47
23 -55 0 -8 11 -28 25 -44 14 -16 25 -37 25 -46 0 -22 29 -47 60 -54 14 -2 40
-8 58 -12 33 -7 46 9 16 20 -14 5 -16 16 -11 62 3 30 11 62 17 70 7 7 15 44
18 81 4 50 14 85 38 132 18 36 31 68 28 73 -3 4 0 8 5 8 6 0 11 9 11 20 0 24
-35 40 -87 40 -80 0 -142 72 -122 143 9 35 68 97 92 97 7 0 20 7 31 15 18 14
18 15 -4 62 -38 82 -58 83 -123 5z"/>
<path d="M1195 6349 c5 -24 9 -88 9 -142 1 -75 4 -100 16 -107 24 -15 36 -12
48 15 19 40 16 82 -14 222 -2 13 -18 30 -36 39 l-31 16 8 -43z"/>
<path d="M3374 6219 c-3 -6 1 -18 10 -27 15 -15 16 -14 16 11 0 27 -13 36 -26
16z"/>
<path d="M6600 5956 c0 -13 8 -30 19 -40 16 -14 20 -15 30 -2 19 23 9 49 -21
57 -25 6 -28 4 -28 -15z"/>
<path d="M1830 5846 c0 -8 5 -18 10 -21 6 -3 10 3 10 14 0 12 -4 21 -10 21 -5
0 -10 -6 -10 -14z"/>
<path d="M6663 5823 c-7 -2 -13 -13 -13 -23 0 -55 -100 -170 -148 -170 -35 0
-99 -28 -125 -54 -14 -14 -31 -26 -36 -26 -6 0 -15 -18 -21 -40 -6 -21 -17
-46 -26 -54 -21 -21 -10 -34 34 -42 20 -4 45 -11 55 -16 10 -5 31 -10 47 -10
17 -1 37 -9 46 -20 10 -10 27 -18 39 -18 13 0 28 -7 35 -15 7 -8 31 -20 54
-26 22 -6 65 -20 94 -30 67 -24 86 -25 77 -1 -4 9 -9 37 -12 62 -3 37 2 58 32
119 42 87 40 99 -30 176 -46 51 -56 79 -48 132 8 47 -16 72 -54 56z m-48 -257
c65 -28 80 -112 24 -141 -42 -22 -52 -19 -85 25 -16 22 -34 38 -41 35 -17 -6
-23 21 -12 54 10 27 23 35 67 40 7 0 28 -5 47 -13z"/>
<path d="M8700 5659 c0 -13 7 -33 15 -43 8 -11 15 -28 15 -38 0 -15 -8 -18
-51 -18 -63 0 -61 -15 6 -41 53 -20 75 -19 75 5 0 8 10 16 23 18 18 2 24 12
31 56 11 63 2 77 -26 40 -16 -23 -23 -26 -39 -18 -10 6 -19 17 -19 24 0 8 -7
19 -15 26 -13 10 -15 9 -15 -11z"/>
<path d="M8830 5470 c-8 -5 -11 -12 -7 -16 4 -4 13 -2 19 4 15 15 7 24 -12 12z"/>
<path d="M8720 5445 c-10 -13 -9 -15 11 -15 34 0 56 15 34 24 -24 9 -31 8 -45
-9z"/>
<path d="M8906 5281 c-3 -5 0 -11 8 -14 15 -6 26 1 26 15 0 11 -27 10 -34 -1z"/>
<path d="M6630 5130 c-9 -6 -10 -10 -3 -10 6 0 15 5 18 10 8 12 4 12 -15 0z"/>
<path d="M9110 5100 c0 -5 7 -10 15 -10 8 0 15 5 15 10 0 6 -7 10 -15 10 -8 0
-15 -4 -15 -10z"/>
<path d="M6667 5059 c4 -12 15 -24 25 -27 11 -2 24 -16 29 -29 5 -13 14 -21
20 -18 7 5 4 14 -7 26 -10 11 -12 19 -6 19 7 0 12 5 12 11 0 6 -6 9 -12 6 -7
-2 -25 4 -40 14 -26 19 -26 19 -21 -2z"/>
<path d="M9125 4980 c-3 -5 1 -10 9 -10 9 0 16 5 16 10 0 6 -4 10 -9 10 -6 0
-13 -4 -16 -10z"/>
<path d="M6250 4955 c-14 -17 -6 -45 13 -45 9 0 14 12 15 30 1 33 -9 38 -28
15z"/>
<path d="M6940 4960 c0 -5 5 -10 11 -10 5 0 7 5 4 10 -3 6 -8 10 -11 10 -2 0
-4 -4 -4 -10z"/>
<path d="M6780 4951 c0 -5 -3 -16 -6 -25 -4 -10 3 -20 21 -28 16 -7 28 -22 32
-39 6 -31 43 -55 70 -45 16 7 16 9 3 19 -21 17 -24 57 -4 57 9 0 14 6 12 13
-6 17 -58 17 -58 -1 0 -7 -8 -12 -17 -10 -11 2 -18 13 -18 27 0 12 -8 27 -18
32 -11 7 -17 7 -17 0z"/>
<path d="M9252 4934 c-27 -19 -29 -44 -3 -44 10 0 24 -7 31 -15 20 -24 32 -3
25 39 -8 40 -19 44 -53 20z"/>
<path d="M8456 4876 c3 -8 16 -18 27 -22 12 -4 27 -13 32 -21 15 -20 78 -22
82 -3 3 16 -53 43 -114 55 -27 5 -32 4 -27 -9z"/>
<path d="M6957 4851 c-17 -18 -17 -19 7 -23 14 -3 23 -2 21 3 -3 4 0 9 7 11 6
2 8 10 4 16 -10 16 -17 14 -39 -7z"/>
<path d="M6290 4830 c8 -5 20 -10 25 -10 6 0 3 5 -5 10 -8 5 -19 10 -25 10 -5
0 -3 -5 5 -10z"/>
<path d="M9230 4790 c0 -5 4 -10 9 -10 6 0 13 5 16 10 3 6 -1 10 -9 10 -9 0
-16 -4 -16 -10z"/>
<path d="M7005 4760 c3 -5 11 -10 16 -10 6 0 7 5 4 10 -3 6 -11 10 -16 10 -6
0 -7 -4 -4 -10z"/>
<path d="M7115 4730 c3 -5 11 -10 16 -10 6 0 7 5 4 10 -3 6 -11 10 -16 10 -6
0 -7 -4 -4 -10z"/>
<path d="M9024 4695 c-3 -14 -12 -25 -20 -25 -16 0 -19 -46 -4 -55 7 -4 7 -13
0 -24 -6 -12 -5 -22 2 -29 16 -16 48 -15 48 1 0 14 50 47 72 47 8 0 20 -11 27
-24 11 -20 101 -76 123 -76 4 0 6 20 5 45 -2 50 5 45 -112 71 -29 7 -43 17
-53 37 -7 15 -21 27 -31 27 -11 0 -21 7 -25 15 -8 23 -25 18 -32 -10z"/>
<path d="M3732 4640 c-6 -11 -12 -28 -12 -37 0 -15 2 -15 14 -3 17 18 30 60
19 60 -4 0 -14 -9 -21 -20z"/>
<path d="M3687 4563 c-3 -16 -15 -38 -26 -49 -11 -12 -18 -24 -15 -26 2 -3 -2
-18 -11 -34 -8 -16 -15 -38 -15 -49 0 -17 -9 -39 -52 -127 -14 -30 -9 -48 18
-58 40 -16 44 -13 44 36 0 69 34 214 62 259 19 31 24 75 9 75 -5 0 -11 -12
-14 -27z"/>
<path d="M3656 4544 c-5 -14 -4 -15 9 -4 17 14 19 20 6 20 -5 0 -12 -7 -15
-16z"/>
<path d="M9240 4466 c-20 -25 -76 -39 -98 -25 -17 11 -25 9 -56 -15 -32 -24
-63 -64 -54 -70 9 -8 159 -23 180 -19 23 4 63 54 53 65 -3 3 4 13 15 23 19 17
19 19 4 37 -21 22 -28 22 -44 4z"/>
<path d="M8511 4456 c-16 -20 -5 -36 46 -67 23 -15 38 -18 45 -11 17 17 4 47
-22 50 -14 2 -32 13 -41 24 -14 18 -17 18 -28 4z"/>
<path d="M2638 4443 c6 -2 18 -2 25 0 6 3 1 5 -13 5 -14 0 -19 -2 -12 -5z"/>
<path d="M8507 4334 c-16 -16 -5 -24 34 -24 28 0 39 4 37 13 -5 13 -60 22 -71
11z"/>
<path d="M3895 4290 c4 -6 11 -8 16 -5 14 9 11 15 -7 15 -8 0 -12 -5 -9 -10z"/>
<path d="M315 4250 c-3 -5 -1 -10 4 -10 6 0 11 5 11 10 0 6 -2 10 -4 10 -3 0
-8 -4 -11 -10z"/>
<path d="M3269 4214 c-5 -15 -27 -48 -48 -73 -45 -55 -53 -68 -80 -146 -69
-191 -86 -418 -69 -895 5 -138 15 -244 30 -325 12 -66 22 -136 22 -155 1 -19
4 -38 9 -41 4 -3 8 -30 10 -60 1 -30 6 -57 10 -60 5 -4 10 -35 12 -70 2 -35 9
-84 16 -108 10 -38 10 -46 -3 -55 -13 -9 -13 -13 -2 -24 16 -14 19 -182 3
-182 -5 0 -39 20 -75 44 -35 25 -90 57 -122 72 -31 14 -94 44 -138 66 l-82 40
-6 48 c-3 26 -4 54 -1 61 3 8 -11 31 -30 52 -19 20 -37 52 -40 70 -32 185 -44
218 -104 290 -31 38 -72 89 -91 114 -19 26 -46 61 -60 78 -14 18 -64 84 -112
146 -77 102 -231 265 -313 332 -110 89 -274 178 -351 190 -62 10 -102 -27
-117 -110 -6 -31 -5 -33 24 -33 83 0 176 -45 319 -155 88 -68 278 -261 336
-340 15 -22 44 -59 64 -81 60 -70 78 -93 82 -102 3 -9 30 -43 136 -168 28 -34
52 -67 52 -72 0 -6 4 -12 8 -14 12 -4 106 -136 126 -176 10 -19 16 -53 16 -80
-1 -26 2 -57 5 -69 10 -32 -5 -28 -44 12 -19 19 -38 35 -42 35 -5 0 -9 6 -9
14 0 8 -6 16 -12 19 -10 3 -10 8 1 21 13 16 12 17 -12 11 -22 -6 -26 -4 -21 9
4 11 1 16 -11 16 -11 0 -15 5 -11 15 3 9 0 15 -10 15 -11 0 -15 6 -11 20 3 13
0 20 -9 20 -8 0 -14 7 -14 15 0 8 -4 15 -10 15 -5 0 -10 -4 -10 -10 0 -5 -5
-10 -11 -10 -6 0 -8 9 -4 21 5 15 4 19 -4 15 -19 -12 -33 4 -19 22 11 13 10
15 -4 9 -16 -6 -78 37 -78 55 0 4 -17 24 -37 46 -21 21 -58 62 -83 92 -25 30
-63 75 -85 99 -22 24 -53 60 -70 80 -94 112 -267 272 -360 332 -115 76 -144
89 -217 98 l-53 6 1 38 c1 38 -9 49 -20 22 -3 -8 -10 -15 -16 -15 -6 0 -24
-15 -40 -34 -24 -27 -35 -32 -57 -28 -16 2 -33 9 -40 14 -7 5 -25 7 -41 3 -25
-5 -40 2 -95 44 -61 47 -68 50 -96 40 -37 -13 -98 -7 -166 16 -80 27 -97 38
-108 68 -5 15 -12 26 -16 24 -3 -1 -22 -11 -42 -20 -49 -22 -56 -52 -18 -67
16 -7 29 -18 29 -25 0 -7 -21 -31 -46 -54 -52 -46 -91 -53 -150 -25 -19 9 -38
14 -41 10 -7 -7 30 -130 46 -155 7 -11 12 -11 32 2 13 8 35 18 49 22 34 10 90
47 90 61 0 15 41 50 65 56 15 4 28 -4 45 -28 14 -19 39 -38 59 -43 18 -6 41
-16 50 -23 16 -14 105 -55 169 -79 18 -6 47 -26 65 -43 42 -41 86 -70 116 -76
13 -3 26 -11 29 -17 4 -13 -3 -17 -51 -27 -22 -5 -27 -12 -27 -36 0 -19 7 -33
20 -40 11 -6 20 -21 20 -35 0 -21 3 -23 29 -15 35 10 103 -2 162 -29 194 -88
216 -101 264 -159 33 -41 180 -152 200 -152 7 0 209 -131 215 -140 3 -4 32
-29 65 -55 33 -26 75 -63 94 -82 35 -34 51 -41 51 -23 0 6 -4 10 -8 10 -5 0
-29 29 -53 65 -24 36 -47 65 -51 65 -5 0 -8 6 -8 14 0 8 -7 17 -16 20 -9 4
-14 9 -11 12 2 3 -6 17 -19 31 -13 14 -24 30 -24 35 0 4 -19 28 -43 52 -115
118 -207 218 -208 224 -1 19 -244 184 -356 241 -70 36 -110 83 -115 137 -3 37
-2 39 29 42 74 7 211 -55 383 -175 112 -77 345 -315 444 -454 21 -29 42 -57
47 -63 38 -47 57 -73 62 -86 4 -8 16 -28 27 -45 11 -16 25 -40 31 -52 7 -13
16 -23 21 -23 4 0 8 -8 8 -17 0 -10 6 -27 13 -39 6 -12 27 -48 44 -82 18 -33
37 -63 43 -67 17 -10 42 -74 36 -91 -5 -13 -14 -15 -41 -10 -40 8 -44 -2 -17
-42 18 -27 34 -60 66 -136 l17 -38 -24 6 c-30 7 -42 -3 -21 -19 14 -10 15 -14
3 -33 -8 -12 -19 -22 -26 -22 -16 0 -17 12 0 29 7 7 -4 5 -28 -5 -22 -9 -55
-16 -73 -16 -29 1 -32 -1 -27 -19 6 -17 3 -20 -21 -17 -35 4 -46 -27 -15 -37
27 -8 27 -24 1 -33 -20 -8 -20 -9 10 -50 16 -23 30 -47 30 -52 0 -6 20 -33 45
-59 25 -26 45 -53 45 -60 0 -18 13 -13 36 16 13 17 26 24 37 20 23 -9 68 -83
86 -142 9 -27 20 -56 24 -63 11 -17 27 -5 27 20 0 18 9 13 53 -30 44 -44 156
-122 176 -122 3 0 33 -14 66 -30 33 -16 67 -30 76 -30 8 0 27 -5 41 -12 23
-11 26 -19 31 -93 6 -79 6 -81 -38 -170 -41 -84 -75 -173 -75 -195 0 -6 6 -10
14 -10 8 0 23 29 37 73 12 39 25 64 27 55 2 -9 -1 -25 -6 -35 -6 -10 -13 -39
-17 -65 -7 -45 -6 -48 16 -48 12 0 30 -6 38 -14 9 -7 60 -28 115 -46 82 -28
101 -32 118 -21 16 10 23 10 38 -4 17 -15 19 -15 34 7 9 12 16 30 16 40 0 27
21 67 34 62 16 -6 40 12 32 25 -9 14 -46 15 -46 1 0 -5 -4 -10 -9 -10 -5 0
-11 17 -15 38 -3 20 -13 50 -21 66 -8 15 -15 38 -15 50 0 12 -5 27 -12 34 -9
9 -9 15 0 24 10 10 15 10 23 -2 9 -13 10 -13 6 0 -2 9 -14 14 -27 12 -17 -2
-21 2 -16 14 3 8 6 18 6 20 0 2 9 4 20 4 11 0 20 -5 20 -10 0 -6 8 -5 20 2 11
7 18 19 15 29 -9 28 25 17 41 -13 17 -32 29 -37 21 -8 -3 11 -2 20 2 20 16 0
126 -31 135 -39 6 -5 35 -11 64 -14 29 -3 58 -10 65 -14 23 -15 82 -33 109
-33 15 0 29 -4 32 -9 3 -5 25 -12 50 -15 24 -4 52 -13 62 -21 11 -8 30 -15 45
-15 14 0 29 -4 35 -9 8 -8 67 -40 247 -134 33 -17 49 -19 110 -12 40 4 92 8
116 8 l45 2 -3 -162 -3 -163 101 0 101 0 2 53 c3 118 6 159 12 210 l7 54 70 7
c39 3 75 4 80 0 12 -7 99 -19 244 -34 197 -21 256 -30 271 -42 7 -5 16 -8 20
-7 5 1 11 1 14 0 3 -1 32 -4 65 -6 33 -3 94 -9 135 -13 41 -4 143 -4 225 -1
143 6 156 9 268 49 130 45 321 125 383 159 38 21 38 22 9 17 -45 -7 -55 4 -65
72 -11 79 6 119 53 127 219 36 288 47 322 51 79 9 122 32 154 82 16 26 41 63
56 83 20 28 29 58 40 135 13 92 20 117 62 214 41 95 63 129 118 186 47 48 82
71 165 111 58 28 114 53 125 56 11 3 52 15 90 26 112 33 355 89 419 97 34 4
66 14 75 23 25 25 141 179 141 187 0 7 -102 0 -220 -15 -140 -18 -451 -103
-565 -155 -16 -7 -64 -28 -105 -47 -41 -18 -82 -38 -90 -45 -8 -6 -29 -19 -47
-28 -17 -9 -59 -41 -93 -72 l-61 -57 20 50 c31 79 80 165 107 185 13 11 30 25
37 31 36 35 131 101 173 121 59 28 223 82 279 91 40 6 138 27 310 64 50 11
155 28 234 38 l143 18 28 40 c15 22 40 62 55 89 l29 49 -150 -7 c-82 -3 -160
-8 -174 -10 -14 -2 -61 -9 -105 -15 -265 -38 -392 -67 -492 -111 -24 -10 -43
-14 -43 -9 0 5 39 50 88 98 92 94 192 165 251 180 153 40 379 52 676 38 39 -2
41 -1 72 58 18 33 33 66 33 72 0 31 -72 45 -260 50 -414 12 -617 -52 -813
-256 -126 -131 -413 -381 -437 -381 -18 0 -20 93 -4 188 6 37 5 42 -10 36 -13
-5 -16 0 -16 25 0 21 5 31 15 31 8 0 15 7 15 15 0 17 -27 20 -50 5 -12 -7 -15
-33 -17 -112 -1 -57 -4 -121 -7 -143 -8 -51 -16 -178 -16 -228 1 -21 -2 -43
-6 -49 -4 -6 -8 -52 -9 -102 -1 -50 -8 -119 -15 -154 -11 -52 -18 -67 -49 -91
-20 -16 -52 -32 -71 -36 -19 -3 -62 -15 -95 -25 -33 -10 -112 -33 -175 -50
-63 -17 -123 -33 -132 -36 -15 -4 -16 -1 -8 27 5 17 7 36 4 41 -3 5 2 20 11
34 9 14 15 33 13 43 -2 10 4 26 12 36 11 14 12 19 3 22 -20 7 -15 20 8 26 18
5 20 10 14 39 -15 63 -15 63 30 67 23 2 18 21 -5 21 -23 0 -26 13 -6 29 15 13
17 73 3 87 -11 11 -8 76 3 69 6 -3 10 1 10 10 0 8 6 18 14 21 12 5 13 11 4 30
-9 19 -8 28 5 42 12 13 14 21 6 29 -13 13 6 104 27 136 9 14 9 27 2 49 -8 21
-7 42 1 71 7 23 16 56 21 72 5 17 11 54 15 82 4 29 11 55 16 59 5 3 9 21 9 40
0 30 4 35 30 41 17 3 30 11 30 18 0 8 -9 10 -25 7 -27 -5 -35 15 -10 24 8 4
15 13 15 21 0 8 16 33 35 56 19 22 35 44 35 49 0 4 9 8 20 8 28 0 25 29 -5 40
-14 5 -25 14 -25 20 0 5 -7 10 -15 10 -8 0 -15 6 -15 14 0 11 9 13 38 10 35
-5 36 -4 18 10 -11 9 -17 19 -13 22 4 4 13 1 22 -6 12 -10 15 -9 16 6 1 14 3
13 9 -6 4 -14 8 -18 9 -10 1 9 10 23 21 33 11 9 20 24 20 32 0 13 -4 14 -20 5
-31 -17 -26 15 8 47 15 14 26 31 24 37 -1 7 10 19 25 27 39 20 52 40 46 70 -4
22 -1 27 21 33 31 8 45 34 25 47 -11 7 -9 10 9 15 19 5 22 12 17 31 -3 15 -1
25 9 29 8 3 21 23 30 43 8 21 21 41 29 44 7 3 27 31 43 64 16 32 35 64 41 71
15 16 17 36 4 27 -5 -3 -12 -1 -16 4 -3 6 8 14 26 18 22 6 38 21 57 54 49 82
91 141 112 156 11 8 20 21 20 29 0 8 4 14 10 14 13 0 86 98 99 133 10 26 10
27 -12 16 -30 -16 -140 -110 -229 -197 -39 -37 -174 -184 -194 -209 -13 -17
-33 -35 -44 -38 -11 -3 -20 -10 -20 -16 0 -5 -6 -17 -14 -26 -8 -10 -38 -49
-67 -88 -29 -38 -56 -71 -61 -73 -4 -2 -8 -9 -8 -16 0 -7 -9 -21 -20 -31 -11
-10 -20 -24 -20 -31 0 -7 -4 -14 -8 -16 -5 -1 -27 -31 -51 -65 -23 -35 -46
-63 -51 -63 -5 0 -14 -16 -21 -35 -7 -19 -17 -35 -22 -35 -5 0 -31 -11 -59
-25 -27 -14 -61 -25 -74 -25 -13 0 -24 -4 -24 -9 0 -5 -8 -8 -17 -7 -10 0 -18
-6 -18 -16 0 -26 -46 -60 -72 -53 -16 4 -23 1 -23 -10 0 -13 -96 -65 -120 -65
-4 0 -21 -10 -37 -23 -15 -12 -41 -24 -58 -26 -38 -4 -67 -19 -60 -32 4 -5 -2
-12 -12 -15 -24 -8 -48 -17 -105 -43 -26 -12 -53 -21 -59 -21 -6 0 -23 -6 -37
-14 -15 -8 -74 -37 -132 -65 -158 -76 -310 -166 -310 -183 0 -5 -4 -6 -10 -3
-5 3 -10 -1 -10 -9 0 -9 -5 -16 -10 -16 -6 0 -27 -15 -46 -32 -20 -18 -68 -50
-107 -71 -39 -20 -86 -51 -104 -67 -18 -17 -37 -30 -42 -30 -4 0 -14 -7 -21
-15 -17 -21 -169 -135 -179 -135 -4 0 -16 -9 -25 -19 -10 -11 -24 -17 -31 -15
-7 3 -15 -4 -18 -15 -4 -17 -13 -21 -46 -21 -29 0 -41 4 -41 14 0 30 13 46 36
46 17 0 24 6 24 20 0 11 7 20 15 20 8 0 15 5 15 11 0 8 -16 10 -51 6 -48 -6
-50 -5 -47 16 2 15 11 23 28 25 14 2 30 10 36 17 5 7 28 15 49 17 21 2 40 9
43 16 3 9 -3 12 -14 10 -13 -2 -18 2 -16 15 2 12 -4 17 -18 17 -14 0 -20 -5
-18 -17 2 -12 -4 -19 -19 -21 -17 -3 -21 0 -17 12 7 17 -11 22 -21 6 -10 -16
-65 -12 -65 5 0 22 -21 18 -27 -5 -4 -15 -11 -18 -37 -13 -30 6 -31 6 -13 -14
9 -11 17 -29 17 -42 0 -12 7 -24 15 -27 12 -5 14 -18 11 -60 -3 -30 -1 -56 4
-59 10 -6 1 -45 -11 -45 -5 0 -9 -4 -9 -10 0 -5 6 -10 14 -10 16 0 30 -70 16
-84 -6 -6 -10 -22 -10 -38 0 -19 -4 -26 -14 -22 -23 9 -29 -16 -10 -37 16 -18
16 -19 0 -19 -9 0 -19 7 -22 15 -9 23 -31 18 -38 -10 -4 -16 -13 -25 -26 -25
-11 0 -20 -7 -20 -16 0 -8 -5 -12 -10 -9 -7 4 -9 -2 -4 -19 5 -20 2 -26 -10
-26 -21 0 -20 24 1 56 13 20 14 30 5 44 -8 14 -7 22 3 36 8 11 14 14 15 7 0
-7 7 -13 15 -13 16 0 21 45 6 54 -5 3 -12 23 -16 43 -10 56 -35 93 -63 93 -21
0 -23 3 -17 30 6 27 4 30 -19 30 -28 0 -33 9 -15 27 7 7 2 15 -15 27 -15 9
-26 25 -26 35 0 10 -9 21 -20 24 -13 3 -18 11 -14 20 3 10 -3 20 -15 27 -12 6
-21 17 -21 25 0 8 -9 19 -20 25 -11 6 -20 15 -20 21 0 16 -70 80 -80 74 -6 -3
-10 1 -10 10 0 22 -63 85 -85 85 -12 0 -16 6 -12 20 3 12 0 20 -7 20 -13 0
-116 103 -116 116 0 5 -12 20 -25 33 -14 13 -25 28 -25 33 0 6 -13 24 -30 40
-16 15 -30 31 -30 34 0 4 -15 27 -34 53 -19 26 -38 59 -41 73 -4 15 -13 32
-21 39 -8 6 -14 17 -14 24 0 18 -28 71 -45 85 -8 7 -15 21 -15 31 0 10 -9 21
-20 24 -11 3 -20 15 -20 26 0 10 -4 19 -9 19 -5 0 -11 8 -15 18 -3 9 -10 24
-15 32 -16 26 -39 84 -46 120 -4 19 -10 40 -13 45 -4 6 -8 37 -9 69 -2 46 2
67 19 94 12 20 16 32 10 28 -16 -10 -15 13 2 44 l14 25 13 -28 c10 -22 10 -33
1 -48 -10 -16 -9 -22 7 -38 11 -11 21 -30 23 -43 2 -15 9 -22 21 -22 14 2 15
-1 6 -12 -14 -17 -3 -34 22 -34 14 0 19 8 21 33 4 74 -2 131 -14 138 -9 6 -4
9 15 9 17 0 27 5 27 15 0 10 -10 15 -26 15 -22 0 -26 4 -21 23 2 12 8 29 11
39 5 12 2 16 -11 15 -10 -1 -18 5 -18 13 0 8 -11 22 -25 30 -18 10 -21 15 -10
17 10 2 16 18 17 48 2 48 -8 56 -29 27 -7 -11 -20 -21 -28 -24 -8 -2 -19 -24
-25 -49 -10 -39 -14 -44 -38 -42 -23 1 -27 -3 -34 -35 -9 -44 -7 -261 2 -315
4 -20 11 -40 16 -43 5 -3 9 -16 9 -30 0 -14 6 -27 14 -30 8 -3 12 -13 9 -23
-2 -9 3 -23 11 -30 9 -8 16 -21 16 -31 0 -10 7 -23 15 -30 8 -7 15 -21 15 -32
0 -10 7 -21 15 -24 8 -4 15 -14 15 -24 0 -10 7 -23 15 -30 8 -7 15 -21 15 -32
0 -10 7 -21 15 -24 8 -4 15 -14 15 -24 0 -10 7 -20 15 -24 8 -3 15 -14 15 -26
0 -11 9 -25 19 -32 10 -6 17 -17 14 -24 -2 -7 5 -19 16 -26 12 -7 21 -21 21
-30 0 -10 9 -22 20 -28 11 -6 20 -17 20 -25 0 -8 9 -25 21 -37 11 -13 38 -43
60 -66 21 -24 42 -55 45 -68 3 -13 11 -24 16 -24 13 0 92 -84 123 -130 13 -19
59 -71 102 -116 43 -44 85 -94 93 -110 8 -16 27 -47 42 -70 32 -49 63 -116 73
-164 4 -19 16 -46 27 -60 26 -36 49 -175 45 -282 -3 -113 -12 -121 -141 -137
-160 -20 -298 -15 -416 15 -131 33 -154 44 -210 107 -104 116 -172 160 -300
192 -87 21 -234 73 -292 101 l-46 24 -7 67 c-4 38 -13 97 -21 134 -8 36 -16
85 -18 110 -2 24 -6 51 -9 59 -7 18 -25 228 -37 428 -9 146 -5 516 6 562 3 14
7 63 9 110 4 157 16 233 38 258 18 19 18 22 4 22 -21 0 -22 24 -2 80 8 23 15
57 15 74 0 18 6 38 12 44 14 14 20 108 19 272 -1 92 -4 107 -21 122 -11 9 -20
21 -20 27 0 21 -21 11 -31 -15z m3831 -1134 c0 -5 -4 -10 -10 -10 -5 0 -10 5
-10 10 0 6 5 10 10 10 6 0 10 -4 10 -10z m-376 -172 c-30 -35 -88 -78 -105
-78 -18 0 -9 21 14 29 12 5 42 27 67 49 53 47 65 47 24 0z m281 -78 c3 -5 1
-10 -4 -10 -6 0 -11 5 -11 10 0 6 2 10 4 10 3 0 8 -4 11 -10z m-475 -55 c0 -8
-4 -15 -9 -15 -13 0 -22 16 -14 24 11 11 23 6 23 -9z m-52 -43 c2 -7 -2 -10
-12 -6 -9 3 -16 11 -16 16 0 13 23 5 28 -10z m-58 -27 c0 -9 -6 -12 -15 -9 -8
4 -15 10 -15 15 0 5 7 9 15 9 8 0 15 -7 15 -15z m-60 -25 c0 -5 -7 -10 -15
-10 -8 0 -15 5 -15 10 0 6 7 10 15 10 8 0 15 -4 15 -10z m-56 -36 c4 -10 1
-14 -6 -12 -15 5 -23 28 -10 28 5 0 13 -7 16 -16z m-68 -31 c-10 -10 -19 5
-10 18 6 11 8 11 12 0 2 -7 1 -15 -2 -18z m-56 -24 c0 -11 -4 -17 -10 -14 -5
3 -10 13 -10 21 0 8 5 14 10 14 6 0 10 -9 10 -21z m-55 -29 c-5 -8 -11 -8 -17
-2 -6 6 -7 16 -3 22 5 8 11 8 17 2 6 -6 7 -16 3 -22z m-65 -15 c0 -8 -4 -15
-10 -15 -5 0 -10 7 -10 15 0 8 5 15 10 15 6 0 10 -7 10 -15z m-60 -25 c0 -5
-4 -10 -10 -10 -5 0 -10 5 -10 10 0 6 5 10 10 10 6 0 10 -4 10 -10z m760 -62
c0 -89 -6 -106 -36 -100 -28 5 -32 -11 -6 -30 25 -19 23 -82 -3 -102 -19 -15
-19 -15 -1 -16 15 0 17 -5 11 -27 -4 -16 -8 -47 -10 -71 -2 -23 -6 -50 -10
-60 -4 -9 -11 -41 -15 -71 -5 -30 -17 -62 -27 -73 -14 -16 -15 -21 -3 -28 12
-7 12 -21 -3 -92 -10 -46 -29 -135 -42 -198 -40 -195 -45 -212 -56 -226 -14
-17 -214 -19 -272 -3 -21 5 -72 12 -115 13 -42 2 -79 5 -82 6 -3 1 -9 1 -15 0
-24 -6 -88 1 -107 11 -18 10 -20 9 -15 -5 5 -14 -17 -15 -211 -16 -220 0 -346
9 -482 36 -120 23 -185 31 -206 24 -77 -28 -96 -32 -107 -20 -30 29 6 254 57
355 39 79 94 155 112 155 8 0 14 5 14 10 0 6 6 10 14 10 8 0 16 6 19 14 9 22
116 98 128 91 14 -9 41 15 35 31 -9 22 32 43 73 37 52 -8 61 -20 31 -43 -14
-11 -33 -20 -42 -20 -10 0 -32 -20 -50 -44 -18 -25 -43 -47 -55 -50 -13 -4
-23 -12 -23 -20 0 -7 -9 -25 -20 -39 -11 -14 -20 -33 -20 -43 0 -16 1 -16 20
1 11 10 22 26 25 36 4 11 13 19 21 19 8 0 23 9 34 20 l20 20 0 -20 c0 -27 16
-25 23 2 6 21 7 21 25 5 23 -21 52 -22 52 -2 0 8 -9 15 -20 15 -19 0 -47 36
-36 48 3 3 6 1 6 -5 0 -6 10 -14 23 -18 12 -4 25 -8 30 -10 4 -1 11 -3 17 -4
5 0 7 -9 4 -18 -5 -17 -5 -17 6 0 13 21 30 14 30 -14 0 -10 5 -19 10 -19 6 0
10 8 10 18 0 14 2 15 10 2 8 -13 11 -12 24 5 15 20 15 20 16 -2 0 -28 10 -29
42 -3 14 10 28 16 32 13 3 -3 6 0 6 8 0 19 61 19 76 0 9 -12 12 -11 17 3 4 9
13 16 22 16 9 0 15 9 15 22 0 21 1 21 20 3 20 -18 21 -18 50 16 16 19 29 39
30 46 0 7 7 10 17 6 12 -5 15 -2 10 9 -8 22 23 48 56 48 24 0 27 3 21 25 -5
21 -3 25 15 25 14 0 25 9 31 25 5 14 17 25 26 25 10 0 25 7 35 16 14 13 20 13
38 3 11 -7 24 -10 28 -6 4 5 1 12 -6 16 -11 7 -11 13 2 31 9 13 17 17 22 11
11 -19 31 -12 45 17 15 29 17 36 19 66 1 13 6 16 18 12 10 -4 23 1 35 14 10
11 29 20 42 20 13 0 33 9 46 20 21 18 25 19 32 5 13 -23 46 -18 75 11 20 20
28 23 37 14 8 -9 8 -14 -1 -17 -21 -8 -15 -25 6 -18 10 3 37 -1 59 -8 39 -14
41 -14 46 10 6 22 8 23 36 8 39 -20 40 -20 40 23 1 35 2 36 15 18 14 -19 15
-19 15 7 0 15 5 27 10 27 6 0 10 -27 10 -62z m-820 27 c0 -8 -4 -15 -9 -15
-13 0 -22 16 -14 24 11 11 23 6 23 -9z m742 -17 c-9 -9 -12 -7 -12 12 0 19 3
21 12 12 9 -9 9 -15 0 -24z m-802 -8 c0 -5 -2 -10 -4 -10 -3 0 -8 5 -11 10 -3
6 -1 10 4 10 6 0 11 -4 11 -10z m-110 -60 c0 -5 -4 -10 -9 -10 -6 0 -13 5 -16
10 -3 6 1 10 9 10 9 0 16 -4 16 -10z m444 -64 c-3 -14 -12 -26 -19 -26 -11 0
-10 6 2 31 18 35 27 33 17 -5z m-3289 -370 c77 -38 166 -88 198 -110 l57 -40
0 -87 c0 -48 -4 -90 -9 -93 -9 -6 -163 54 -266 104 -105 51 -158 128 -149 217
5 57 13 85 22 81 4 -2 70 -35 147 -72z m2045 64 c0 -5 -5 -10 -11 -10 -5 0 -7
5 -4 10 3 6 8 10 11 10 2 0 4 -4 4 -10z m686 -48 c-11 -10 -15 4 -8 28 l7 25
3 -23 c2 -13 1 -26 -2 -30z m-886 -51 c0 -12 -20 -25 -27 -18 -7 7 6 27 18 27
5 0 9 -4 9 -9z m-2150 -5 c0 -3 -4 -8 -10 -11 -5 -3 -10 -1 -10 4 0 6 5 11 10
11 6 0 10 -2 10 -4z m2210 -281 c0 -33 -4 -45 -14 -45 -21 0 -30 20 -17 33 6
6 11 21 11 34 0 13 5 23 10 23 6 0 10 -20 10 -45z m70 15 c0 -5 -7 -10 -16
-10 -8 0 -12 5 -9 10 3 6 10 10 16 10 5 0 9 -4 9 -10z m-2118 -39 c28 -40 117
-98 213 -140 55 -24 115 -50 132 -58 18 -7 37 -22 42 -31 14 -27 23 -189 11
-197 -30 -19 -270 98 -344 168 -71 65 -92 117 -88 210 4 69 12 80 34 48z m643
-1 c6 -4 44 -17 85 -29 41 -12 111 -33 155 -46 44 -13 91 -27 105 -30 33 -9
154 -65 160 -75 3 -4 25 -22 50 -41 25 -19 60 -49 79 -67 18 -18 53 -41 77
-51 24 -11 47 -27 50 -35 5 -12 10 -13 24 -3 15 9 35 7 91 -8 84 -21 188 -21
367 1 l52 7 0 -44 c0 -99 -8 -116 -62 -139 -54 -23 -64 -24 -188 -17 -95 6
-179 21 -213 38 -42 23 -167 111 -167 118 0 7 -86 71 -96 71 -3 0 -29 11 -57
24 -64 29 -117 46 -143 46 -31 0 -211 63 -294 104 -111 53 -132 74 -136 132
-1 26 -1 51 2 55 4 8 43 1 59 -11z m-950 -20 c3 -6 -1 -7 -9 -4 -18 7 -21 14
-7 14 6 0 13 -4 16 -10z m2345 -80 c24 -8 24 -8 -7 -9 -17 -1 -35 4 -38 9 -7
11 9 11 45 0z m19 -220 c27 0 32 -3 21 -10 -35 -23 -111 -7 -124 25 -5 13 -2
13 31 0 19 -8 52 -15 72 -15z m2366 21 c-3 -5 -1 -12 5 -16 5 -3 10 -20 10
-37 0 -29 -1 -30 -35 -24 -27 5 -35 4 -35 -7 0 -8 9 -17 20 -20 11 -3 20 -10
20 -17 0 -7 -9 -14 -20 -17 -11 -3 -20 -13 -20 -23 0 -21 -45 -60 -69 -60 -10
0 -21 -4 -26 -9 -13 -11 -96 -31 -130 -31 -14 0 -33 -4 -43 -10 -20 -11 -193
-38 -210 -32 -7 2 -10 13 -7 25 7 30 14 86 14 125 1 30 6 35 54 56 49 22 203
57 310 72 26 3 67 12 90 20 50 15 80 17 72 5z m-3759 -69 c17 1 166 -56 189
-72 15 -11 183 -57 232 -64 24 -4 60 -13 80 -22 102 -44 151 -69 184 -95 20
-16 39 -29 43 -29 3 0 36 -20 73 -44 37 -24 86 -49 108 -57 46 -15 211 -18
299 -5 l58 8 -7 -73 c-4 -41 -9 -77 -12 -81 -7 -13 -112 -40 -156 -40 -61 0
-147 30 -182 63 -32 30 -272 149 -299 149 -10 0 -70 18 -135 40 -64 22 -129
40 -144 40 -27 0 -204 56 -222 70 -5 5 -39 20 -75 34 l-66 26 -2 56 c-1 30 -7
63 -14 73 -6 10 -8 27 -4 37 7 18 8 18 20 2 7 -9 21 -16 32 -16z m1716 -21
c40 -11 114 -23 164 -26 51 -4 105 -8 120 -10 16 -2 56 -7 89 -10 33 -4 80
-12 105 -19 45 -12 126 -14 136 -3 3 3 19 1 36 -4 17 -4 34 -6 38 -4 5 3 11
-3 15 -13 6 -16 8 -15 21 3 14 19 25 20 322 17 168 -2 308 -4 309 -6 2 -1 -4
-42 -13 -90 -14 -73 -20 -89 -40 -98 -16 -7 -74 -7 -196 2 -95 7 -216 14 -268
15 -324 12 -421 16 -442 21 -13 2 -78 9 -144 14 -67 5 -155 16 -196 25 -68 14
-141 15 -252 3 -26 -3 -31 1 -38 29 -4 17 -5 55 0 85 l7 53 45 8 c36 7 96 21
107 26 2 1 35 -8 75 -18z m-572 -281 c0 -5 -4 -10 -10 -10 -5 0 -10 5 -10 10
0 6 5 10 10 10 6 0 10 -4 10 -10z m615 -96 c33 -8 91 -16 128 -19 38 -2 75 -9
82 -15 8 -7 27 -9 44 -5 16 3 38 2 49 -4 10 -5 23 -6 28 -2 5 5 45 4 90 -2 75
-9 81 -11 93 -38 15 -34 27 -37 36 -9 7 22 31 27 38 8 3 -9 10 -6 22 10 11 15
23 20 38 17 26 -7 197 -12 425 -14 161 -1 162 -1 162 -23 0 -23 -26 -96 -47
-134 -12 -21 -17 -21 -290 -18 -258 3 -335 8 -533 36 -107 15 -124 16 -230 23
-52 4 -134 13 -182 21 -55 9 -111 12 -157 8 -70 -7 -70 -7 -77 20 -3 14 -2 52
2 83 l9 57 62 11 c35 7 65 14 69 17 3 3 22 1 42 -4 20 -6 64 -17 97 -24z
m-1730 -14 c0 -7 -6 -15 -12 -17 -8 -3 -13 4 -13 17 0 13 5 20 13 18 6 -3 12
-11 12 -18z m43 -13 c2 -10 -3 -17 -12 -17 -10 0 -16 9 -16 21 0 24 23 21 28
-4z m-318 -228 c0 -11 -4 -18 -10 -14 -5 3 -7 12 -3 20 7 21 13 19 13 -6z"/>
<path d="M6530 2410 c0 -5 9 -10 21 -10 11 0 17 5 14 10 -3 6 -13 10 -21 10
-8 0 -14 -4 -14 -10z"/>
<path d="M6497 2353 c-12 -11 -8 -23 7 -23 7 0 19 7 26 15 10 12 9 15 -7 15
-11 0 -23 -3 -26 -7z"/>
<path d="M6594 2339 c-3 -6 -15 -9 -25 -6 -19 5 -21 1 -23 -46 -1 -10 -8 -22
-16 -27 -8 -5 -12 -12 -8 -15 4 -4 20 4 38 16 25 19 34 21 49 12 25 -15 31 -7
24 28 -5 25 -2 29 16 29 11 0 21 4 21 8 0 13 -68 13 -76 1z"/>
<path d="M6310 2330 c0 -5 5 -10 11 -10 5 0 7 5 4 10 -3 6 -8 10 -11 10 -2 0
-4 -4 -4 -10z"/>
<path d="M6395 2330 c-3 -5 -1 -10 4 -10 6 0 11 5 11 10 0 6 -2 10 -4 10 -3 0
-8 -4 -11 -10z"/>
<path d="M6375 2270 c-3 -5 -1 -10 4 -10 6 0 11 5 11 10 0 6 -2 10 -4 10 -3 0
-8 -4 -11 -10z"/>
<path d="M6442 2218 c-21 -21 -15 -41 11 -33 12 4 32 6 45 6 30 -1 28 5 -8 24
-35 18 -33 18 -48 3z"/>
<path d="M6560 2200 c0 -5 4 -10 9 -10 6 0 13 5 16 10 3 6 -1 10 -9 10 -9 0
-16 -4 -16 -10z"/>
<path d="M6670 2200 c0 -5 7 -10 16 -10 8 0 12 5 9 10 -3 6 -10 10 -16 10 -5
0 -9 -4 -9 -10z"/>
<path d="M6400 2020 c-8 -5 -12 -12 -9 -15 4 -3 12 1 19 10 14 17 11 19 -10 5z"/>
<path d="M5205 1970 c-10 -11 -14 -20 -8 -20 5 0 18 9 28 20 10 11 14 20 8 20
-5 0 -18 -9 -28 -20z"/>
<path d="M6406 1933 c-9 -9 -7 -53 2 -53 12 0 32 22 32 36 0 13 -25 26 -34 17z"/>
<path d="M6485 1891 c-6 -11 9 -23 19 -14 9 9 7 23 -3 23 -6 0 -12 -4 -16 -9z"/>
<path d="M5390 1880 c0 -5 5 -10 10 -10 6 0 10 5 10 10 0 6 -4 10 -10 10 -5 0
-10 -4 -10 -10z"/>
<path d="M5527 1873 c-4 -3 -7 -12 -7 -20 0 -20 34 -15 48 7 11 18 10 20 -11
20 -13 0 -27 -3 -30 -7z"/>
<path d="M6300 1859 c0 -11 5 -17 10 -14 6 3 10 13 10 21 0 8 -4 14 -10 14 -5
0 -10 -9 -10 -21z"/>
<path d="M6145 1740 c-3 -5 -1 -10 4 -10 6 0 11 5 11 10 0 6 -2 10 -4 10 -3 0
-8 -4 -11 -10z"/>
<path d="M6122 1685 c3 -17 12 -20 63 -20 47 0 60 3 60 15 0 18 -42 23 -72 8
-17 -8 -26 -8 -39 3 -14 12 -16 11 -12 -6z"/>
<path d="M6250 1649 c0 -11 5 -17 10 -14 6 3 10 13 10 21 0 8 -4 14 -10 14 -5
0 -10 -9 -10 -21z"/>
<path d="M6027 1504 c6 -15 23 -19 23 -5 0 5 -7 11 -14 14 -10 4 -13 1 -9 -9z"/>
<path d="M6082 1499 c2 -6 8 -10 13 -10 5 0 11 4 13 10 2 6 -4 11 -13 11 -9 0
-15 -5 -13 -11z"/>
<path d="M6140 1489 c0 -5 5 -7 10 -4 6 3 10 8 10 11 0 2 -4 4 -10 4 -5 0 -10
-5 -10 -11z"/>
<path d="M6087 1428 c-8 -30 0 -36 18 -12 18 24 19 34 1 34 -7 0 -16 -10 -19
-22z"/>
<path d="M6030 1410 c0 -5 7 -7 15 -4 8 4 15 8 15 10 0 2 -7 4 -15 4 -8 0 -15
-4 -15 -10z"/>
<path d="M3550 1070 c0 -5 5 -10 10 -10 6 0 10 5 10 10 0 6 -4 10 -10 10 -5 0
-10 -4 -10 -10z"/>
<path d="M5985 1100 c4 -6 11 -8 16 -5 14 9 11 15 -7 15 -8 0 -12 -5 -9 -10z"/>
<path d="M8674 4225 c-9 -22 1 -29 15 -11 8 10 9 16 1 21 -5 3 -13 -1 -16 -10z"/>
<path d="M4211 4211 l-25 -7 24 -22 c13 -12 29 -22 34 -22 6 0 3 7 -6 14 -24
18 -23 29 2 21 14 -5 20 -2 20 9 0 17 -10 18 -49 7z"/>
<path d="M303 4175 c0 -22 2 -30 4 -17 2 12 2 30 0 40 -3 9 -5 -1 -4 -23z"/>
<path d="M3905 4190 c-7 -11 11 -40 25 -40 4 0 5 11 2 25 -5 26 -16 32 -27 15z"/>
<path d="M8058 4182 c-16 -7 -28 -17 -28 -23 0 -5 -7 -9 -15 -9 -8 0 -15 7
-15 16 0 9 -7 14 -17 12 -10 -2 -18 -9 -18 -16 0 -6 -16 -20 -35 -31 -19 -10
-53 -28 -75 -40 -43 -23 -32 -30 13 -8 32 16 140 42 163 38 10 -1 19 8 23 23
4 16 13 25 24 24 37 -3 72 2 72 11 0 15 -63 17 -92 3z"/>
<path d="M8627 4162 c-10 -10 -17 -24 -17 -30 0 -6 -15 -15 -32 -20 -28 -7
-33 -13 -31 -36 1 -21 -2 -26 -15 -24 -21 4 -28 38 -11 49 24 14 -6 31 -63 37
-29 3 -56 9 -60 15 -4 8 -11 7 -20 0 -36 -30 -168 -35 -168 -7 0 8 -7 14 -16
14 -10 0 -14 -7 -12 -22 2 -19 9 -23 36 -23 17 0 32 -5 32 -11 0 -29 80 -64
107 -46 6 4 16 20 22 35 11 28 31 37 31 14 0 -7 16 -21 35 -30 48 -23 115 -86
115 -108 0 -11 3 -18 8 -17 4 1 16 -3 27 -9 37 -19 102 -24 115 -8 10 12 8 16
-15 25 -14 5 -28 10 -30 10 -12 0 -55 50 -55 64 0 10 13 44 29 76 27 54 29 70
11 70 -4 0 -14 -8 -23 -18z"/>
<path d="M8780 4082 c0 -7 -6 -12 -12 -12 -9 0 -13 -17 -13 -52 1 -43 4 -52
23 -59 12 -5 22 -14 22 -20 0 -7 18 -50 41 -97 22 -46 38 -86 36 -89 -3 -2
-11 5 -17 17 -18 33 -50 22 -65 -24 -16 -47 -9 -93 16 -109 11 -7 19 -17 19
-23 0 -5 8 -19 18 -30 37 -41 62 -77 57 -84 -4 -7 0 -20 30 -95 5 -11 10 -31
11 -45 2 -14 6 -39 9 -57 4 -17 2 -39 -3 -50 -10 -16 -12 -15 -23 12 -9 22
-13 26 -16 13 -2 -9 1 -26 6 -37 6 -11 12 -37 12 -58 1 -21 5 -51 9 -68 7 -28
8 -28 15 -8 10 31 35 17 35 -20 0 -39 13 -26 33 33 9 25 23 63 32 85 19 45 64
193 65 212 0 7 -7 10 -15 7 -11 -4 -15 0 -15 16 0 12 -8 24 -17 26 -26 7 -27
91 -2 99 16 5 37 61 26 71 -2 3 -16 0 -31 -6 -42 -16 -81 -12 -101 10 -15 16
-17 32 -13 87 3 38 3 62 1 56 -7 -18 -33 -16 -33 3 0 8 -4 12 -10 9 -5 -3 -10
0 -10 8 0 8 -9 26 -20 40 -24 31 -26 73 -4 85 15 8 13 11 -12 23 -33 16 -38
46 -11 63 15 9 22 6 41 -16 29 -37 52 -35 76 5 20 33 26 52 13 44 -5 -3 -18
-1 -30 4 -15 5 -21 13 -17 24 6 13 0 13 -27 -4 -44 -27 -77 -26 -106 1 -13 12
-23 16 -23 10z m50 -58 c0 -8 -9 -14 -20 -14 -22 0 -28 26 -7 33 16 6 27 -1
27 -19z m70 -345 c0 -5 -4 -9 -10 -9 -5 0 -10 7 -10 16 0 8 5 12 10 9 6 -3 10
-10 10 -16z m0 -38 c0 -20 -13 -35 -23 -25 -7 8 4 44 14 44 5 0 9 -9 9 -19z
m54 -160 c4 -5 3 -17 0 -26 -5 -13 -8 -14 -15 -3 -5 7 -9 19 -9 26 0 14 16 16
24 3z m16 -288 c0 -7 -4 -13 -10 -13 -5 0 -10 12 -10 28 0 21 2 24 10 12 5 -8
10 -21 10 -27z"/>
<path d="M3640 4024 c-11 -38 -11 -47 0 -54 24 -15 40 0 36 33 -2 18 -4 40 -5
50 -2 32 -18 17 -31 -29z"/>
<path d="M9150 4024 c-19 -7 -52 -13 -72 -13 -30 -1 -38 -5 -38 -19 0 -20 27
-26 47 -10 20 16 42 2 36 -21 -4 -15 -1 -21 11 -21 23 0 20 -15 -8 -45 -19
-20 -23 -35 -21 -68 1 -30 6 -41 16 -39 18 4 50 42 44 52 -4 6 36 30 51 30 2
0 2 -12 -1 -27 -2 -16 2 -11 9 12 22 62 20 75 -11 75 -16 0 -35 5 -43 10 -13
8 -12 12 8 25 21 15 31 59 15 68 -5 2 -24 -2 -43 -9z"/>
<path d="M4320 4015 c0 -6 12 -12 27 -13 15 -1 32 -7 37 -12 16 -16 26 -12 26
9 0 15 -9 20 -45 23 -27 2 -45 -1 -45 -7z"/>
<path d="M8700 4019 c0 -5 5 -7 10 -4 6 3 10 8 10 11 0 2 -4 4 -10 4 -5 0 -10
-5 -10 -11z"/>
<path d="M8420 3992 c0 -9 44 -32 60 -32 6 0 10 9 10 20 0 16 -7 20 -35 20
-19 0 -35 -4 -35 -8z"/>
<path d="M8915 3930 c3 -5 11 -10 16 -10 6 0 7 5 4 10 -3 6 -11 10 -16 10 -6
0 -7 -4 -4 -10z"/>
<path d="M8980 3860 c-20 -18 -21 -20 -5 -26 19 -8 85 20 85 36 0 18 -56 11
-80 -10z"/>
<path d="M8680 3853 c0 -12 -5 -23 -12 -25 -19 -7 -1 -37 28 -48 36 -14 62 5
39 29 -8 9 -24 27 -35 41 -19 24 -19 24 -20 3z"/>
<path d="M404 3771 c3 -5 -1 -11 -9 -15 -20 -7 -19 -36 0 -36 9 0 23 -17 33
-37 19 -43 29 -53 55 -53 13 0 17 9 17 40 0 22 -4 40 -9 40 -11 0 -32 56 -24
64 4 3 -10 6 -31 6 -20 0 -35 -4 -32 -9z"/>
<path d="M9172 3727 c-29 -42 -33 -54 -27 -88 4 -24 12 -38 18 -36 14 4 48
123 45 153 -2 16 -9 11 -36 -29z"/>
<path d="M720 3755 c0 -7 7 -12 15 -11 24 4 27 13 5 19 -13 3 -20 0 -20 -8z"/>
<path d="M7400 3749 c0 -5 5 -7 10 -4 6 3 10 8 10 11 0 2 -4 4 -10 4 -5 0 -10
-5 -10 -11z"/>
<path d="M1148 3729 c-16 -6 -28 -18 -28 -28 0 -23 28 -61 46 -61 8 0 14 -7
14 -15 0 -9 11 -20 24 -26 21 -10 23 -14 13 -45 -6 -19 -15 -34 -20 -34 -18 0
65 -51 86 -53 20 -2 23 4 28 63 8 81 23 119 57 147 24 19 25 22 7 21 -11 0
-39 7 -63 15 -58 22 -131 29 -164 16z"/>
<path d="M8740 3726 c0 -9 5 -16 10 -16 6 0 10 4 10 9 0 6 -4 13 -10 16 -5 3
-10 -1 -10 -9z"/>
<path d="M1000 3720 c0 -5 9 -10 21 -10 11 0 17 5 14 10 -3 6 -13 10 -21 10
-8 0 -14 -4 -14 -10z"/>
<path d="M3780 3710 c0 -5 5 -10 10 -10 6 0 10 5 10 10 0 6 -4 10 -10 10 -5 0
-10 -4 -10 -10z"/>
<path d="M3370 3654 c0 -11 -6 -26 -12 -34 -11 -12 -10 -12 5 -1 14 11 17 11
17 -3 0 -9 4 -16 8 -16 12 0 7 49 -6 62 -9 9 -12 7 -12 -8z"/>
<path d="M4506 3621 c-4 -7 -5 -15 -2 -18 9 -9 19 4 14 18 -4 11 -6 11 -12 0z"/>
<path d="M3405 3587 c-7 -26 0 -47 14 -47 10 0 7 57 -2 66 -3 4 -9 -5 -12 -19z"/>
<path d="M8400 3572 c0 -4 9 -8 19 -8 11 0 17 4 15 8 -3 4 -12 8 -20 8 -8 0
-14 -4 -14 -8z"/>
<path d="M4560 3560 c0 -5 9 -10 19 -10 11 0 23 -5 26 -10 4 -6 11 -8 16 -4
13 8 -20 33 -43 34 -10 0 -18 -4 -18 -10z"/>
<path d="M8465 3546 c-18 -13 -16 -46 3 -46 8 0 32 42 32 55 0 9 -16 5 -35 -9z"/>
<path d="M8380 3529 c0 -11 4 -18 10 -14 5 3 7 12 3 20 -7 21 -13 19 -13 -6z"/>
<path d="M8800 3527 c0 -17 5 -27 15 -27 19 0 19 9 0 34 -14 19 -15 19 -15 -7z"/>
<path d="M3426 3494 c-8 -22 1 -31 16 -16 9 9 9 15 1 23 -7 7 -12 5 -17 -7z"/>
<path d="M8345 3490 c-3 -6 1 -13 9 -16 9 -3 16 -10 16 -16 0 -5 6 -16 14 -24
11 -10 17 -11 22 -2 4 6 -2 19 -14 29 -12 9 -22 22 -22 28 0 14 -17 14 -25 1z"/>
<path d="M3467 3459 c-21 -24 -18 -33 7 -23 9 3 16 15 16 25 0 24 -2 24 -23
-2z"/>
<path d="M8430 3470 c0 -5 4 -10 9 -10 6 0 13 5 16 10 3 6 -1 10 -9 10 -9 0
-16 -4 -16 -10z"/>
<path d="M8287 3464 c-8 -8 1 -24 14 -24 5 0 9 7 9 15 0 15 -12 20 -23 9z"/>
<path d="M8220 3450 c0 -5 5 -10 10 -10 6 0 10 5 10 10 0 6 -4 10 -10 10 -5 0
-10 -4 -10 -10z"/>
<path d="M3500 3435 c0 -8 5 -15 10 -15 6 0 10 7 10 15 0 8 -4 15 -10 15 -5 0
-10 -7 -10 -15z"/>
<path d="M4558 3443 c7 -3 16 -2 19 1 4 3 -2 6 -13 5 -11 0 -14 -3 -6 -6z"/>
<path d="M8251 3396 c-28 -29 -27 -41 1 -22 31 22 38 20 39 -11 l0 -28 12 25
c6 14 16 28 21 32 14 10 1 21 -28 24 -14 1 -32 -6 -45 -20z"/>
<path d="M8860 3412 c0 -18 12 -42 21 -42 14 0 10 26 -6 40 -9 8 -15 8 -15 2z"/>
<path d="M3480 3400 c0 -5 5 -10 11 -10 5 0 7 5 4 10 -3 6 -8 10 -11 10 -2 0
-4 -4 -4 -10z"/>
<path d="M3520 3370 c0 -5 5 -10 10 -10 6 0 10 5 10 10 0 6 -4 10 -10 10 -5 0
-10 -4 -10 -10z"/>
<path d="M3530 3319 c0 -12 5 -16 15 -13 8 4 15 12 15 18 0 7 -7 13 -15 13 -8
0 -15 -8 -15 -18z"/>
<path d="M3930 3315 c0 -9 5 -15 11 -13 6 2 11 8 11 13 0 5 -5 11 -11 13 -6 2
-11 -4 -11 -13z"/>
<path d="M8142 3314 c-12 -8 -22 -19 -22 -25 0 -15 26 -10 43 9 30 33 17 43
-21 16z"/>
<path d="M7786 3311 c-4 -7 -5 -15 -2 -18 9 -9 19 4 14 18 -4 11 -6 11 -12 0z"/>
<path d="M560 3109 c0 -34 231 -538 273 -593 14 -19 16 -19 39 -4 13 9 35 18
48 20 17 2 27 14 37 42 11 35 11 41 -3 57 -18 20 -14 83 5 102 18 18 61 -9 67
-43 4 -16 10 -30 14 -30 4 0 33 25 63 56 52 52 55 58 42 77 -7 10 -12 24 -9
31 2 6 -21 24 -52 41 -67 37 -102 71 -87 86 13 13 -3 64 -29 93 -14 15 -25 17
-63 12 -40 -7 -51 -4 -90 22 -41 27 -48 29 -94 19 -40 -7 -61 -6 -100 7 -59
19 -61 19 -61 5z"/>
<path d="M6110 3075 c0 -8 2 -15 4 -15 2 0 6 7 10 15 3 8 1 15 -4 15 -6 0 -10
-7 -10 -15z"/>
<path d="M8967 3044 c-3 -3 -3 -12 0 -20 3 -8 0 -21 -6 -28 -8 -9 -8 -16 -2
-20 6 -4 13 9 17 29 6 35 3 51 -9 39z"/>
<path d="M7910 3031 c0 -6 5 -13 10 -16 6 -3 10 1 10 9 0 9 -4 16 -10 16 -5 0
-10 -4 -10 -9z"/>
<path d="M4365 2961 c-3 -5 -1 -12 5 -16 12 -7 30 2 30 16 0 12 -27 12 -35 0z"/>
<path d="M7890 2924 c0 -8 5 -12 10 -9 6 4 8 11 5 16 -9 14 -15 11 -15 -7z"/>
<path d="M4512 2818 c5 -15 28 -18 29 -3 0 6 -7 12 -17 13 -10 3 -15 -1 -12
-10z"/>
<path d="M4620 2811 c0 -5 7 -12 16 -15 14 -5 15 -4 4 9 -14 17 -20 19 -20 6z"/>
<path d="M7341 2804 c0 -11 3 -14 6 -6 3 7 2 16 -1 19 -3 4 -6 -2 -5 -13z"/>
<path d="M4748 2793 c6 -2 18 -2 25 0 6 3 1 5 -13 5 -14 0 -19 -2 -12 -5z"/>
<path d="M7058 2792 c-10 -2 -18 -10 -18 -18 0 -18 8 -18 27 1 18 18 15 23 -9
17z"/>
<path d="M7515 2790 c3 -5 8 -10 11 -10 2 0 4 5 4 10 0 6 -5 10 -11 10 -5 0
-7 -4 -4 -10z"/>
<path d="M4995 2760 c-18 -8 -17 -9 7 -9 15 -1 30 4 33 9 7 12 -12 12 -40 0z"/>
<path d="M4918 2743 c-25 -3 -38 -9 -38 -19 0 -21 47 -17 70 6 11 11 17 19 13
18 -5 -1 -25 -3 -45 -5z"/>
<path d="M5450 2601 c0 -12 5 -21 10 -21 6 0 10 6 10 14 0 8 -4 18 -10 21 -5
3 -10 -3 -10 -14z"/>
<path d="M5525 2590 c-3 -5 1 -10 9 -10 9 0 16 5 16 10 0 6 -4 10 -9 10 -6 0
-13 -4 -16 -10z"/>
<path d="M7640 2555 c0 -9 6 -12 15 -9 8 4 15 10 15 15 0 5 -7 9 -15 9 -8 0
-15 -7 -15 -15z"/>
<path d="M7308 2516 c-2 -20 0 -36 4 -36 13 0 21 51 10 62 -6 6 -11 -2 -14
-26z"/>
<path d="M5391 2517 c-13 -16 -5 -28 15 -20 7 3 21 -3 31 -13 17 -16 18 -16
21 -1 2 9 7 17 11 17 4 0 16 6 26 14 17 12 16 13 -16 12 -19 0 -37 -5 -41 -10
-4 -6 -12 -5 -21 2 -11 10 -17 9 -26 -1z"/>
<path d="M5280 2500 c0 -5 5 -10 11 -10 5 0 7 5 4 10 -3 6 -8 10 -11 10 -2 0
-4 -4 -4 -10z"/>
<path d="M5092 2484 c4 -21 22 -23 26 -1 2 10 -3 17 -13 17 -10 0 -15 -6 -13
-16z"/>
<path d="M1580 2441 c0 -10 24 -21 43 -21 7 0 3 7 -7 15 -22 17 -36 19 -36 6z"/>
<path d="M5055 2440 c-22 -5 -48 -6 -58 -4 -10 3 -24 1 -32 -6 -7 -6 -37 -13
-66 -15 -57 -4 -69 -14 -44 -35 18 -15 20 -37 3 -43 -29 -10 8 -22 67 -22 41
0 69 5 77 14 11 11 9 13 -13 7 -18 -4 -31 -1 -39 9 -11 14 -15 14 -32 -2 -12
-11 -22 -13 -29 -6 -27 27 29 65 91 61 94 -6 171 2 177 18 12 31 -24 39 -102
24z"/>
<path d="M1640 2421 c0 -5 7 -11 15 -15 8 -3 15 -1 15 3 0 5 -7 11 -15 15 -8
3 -15 1 -15 -3z"/>
<path d="M5300 2370 c0 -13 11 -13 30 0 12 8 11 10 -7 10 -13 0 -23 -4 -23
-10z"/>
<path d="M5135 2299 c-10 -15 3 -25 16 -12 7 7 7 13 1 17 -6 3 -14 1 -17 -5z"/>
<path d="M5250 2263 c-14 -3 -30 -9 -37 -15 -7 -5 -17 -7 -23 -3 -13 8 -50 -3
-50 -15 0 -5 14 -16 30 -25 33 -17 51 -12 95 29 25 23 32 37 18 35 -5 -1 -19
-4 -33 -6z"/>
<path d="M2360 2180 c0 -5 5 -10 10 -10 6 0 10 5 10 10 0 6 -4 10 -10 10 -5 0
-10 -4 -10 -10z"/>
<path d="M2483 2078 c-23 -11 -31 -28 -13 -28 6 0 10 5 10 10 0 6 9 10 20 10
11 0 20 -4 20 -10 0 -5 7 -10 17 -10 14 0 14 2 -2 20 -20 23 -22 23 -52 8z"/>
<path d="M2530 2029 c0 -6 -9 -8 -20 -4 -28 9 -25 -15 5 -43 22 -21 26 -22 40
-9 21 21 19 30 -5 22 -20 -6 -28 9 -10 20 6 3 10 10 10 16 0 5 -4 9 -10 9 -5
0 -10 -5 -10 -11z"/>
<path d="M2427 1893 c-4 -3 -7 -11 -7 -17 0 -6 5 -5 12 2 6 6 9 14 7 17 -3 3
-9 2 -12 -2z"/>
<path d="M2446 1794 c-20 -20 -20 -24 1 -39 16 -12 16 -15 -7 -34 -21 -17 -22
-20 -7 -21 10 0 20 7 23 15 4 8 12 15 20 15 16 0 19 16 5 24 -5 3 -7 15 -4 25
7 26 -12 35 -31 15z"/>
<path d="M2288 1739 c-10 -5 -15 -16 -12 -24 8 -19 24 -19 24 0 0 8 7 15 15
15 8 0 15 5 15 10 0 13 -20 12 -42 -1z"/>
<path d="M2510 1725 c-8 -9 -8 -15 -2 -15 12 0 26 19 19 26 -2 2 -10 -2 -17
-11z"/>
<path d="M8085 1689 c6 -18 4 -20 -13 -15 -15 5 -24 1 -32 -14 -6 -11 -19 -20
-30 -20 -10 0 -21 -4 -24 -9 -3 -4 -19 -11 -36 -14 -16 -4 -42 -14 -57 -24
-15 -10 -35 -16 -45 -15 -13 2 -16 -1 -12 -12 4 -10 1 -16 -8 -16 -8 0 -23 -9
-33 -20 -10 -11 -23 -20 -29 -20 -6 0 -22 -10 -36 -23 -14 -12 -37 -28 -52
-34 -16 -7 -28 -17 -28 -22 0 -5 -9 -11 -20 -14 -12 -3 -20 -14 -20 -26 0 -13
-6 -21 -16 -21 -10 0 -14 6 -10 15 7 19 -5 19 -30 0 -12 -9 -14 -14 -6 -15 7
0 11 -4 8 -9 -3 -5 -15 -7 -26 -4 -14 4 -20 0 -20 -11 0 -9 -4 -16 -10 -16 -5
0 -10 -4 -10 -10 0 -5 9 -10 20 -10 11 0 20 4 20 9 0 5 12 12 26 15 24 6 113
66 145 98 33 33 258 157 294 162 8 1 18 5 21 9 4 4 16 7 26 7 10 0 18 3 18 8
0 4 18 15 40 25 22 9 40 20 40 23 0 9 -24 30 -43 37 -15 6 -17 3 -12 -14z"/>
<path d="M2354 1669 c-9 -16 18 -30 33 -17 7 6 10 14 7 19 -7 13 -31 11 -40
-2z"/>
<path d="M2155 1069 c-11 -17 1 -21 15 -4 8 9 8 15 2 15 -6 0 -14 -5 -17 -11z"/>
<path d="M2770 1051 c0 -6 5 -13 10 -16 6 -3 10 1 10 9 0 9 -4 16 -10 16 -5 0
-10 -4 -10 -9z"/>
<path d="M2788 903 c-2 -21 -1 -87 2 -148 l5 -110 38 -2 c34 -1 37 1 37 26 0
20 7 30 28 38 l27 11 -32 1 c-26 1 -33 5 -33 21 0 11 7 23 15 26 22 9 19 44
-4 44 -14 0 -18 -5 -14 -19 3 -10 0 -22 -6 -25 -7 -5 -11 3 -11 21 0 15 -3 38
-6 51 -4 13 -2 22 5 22 6 0 11 -7 11 -15 0 -8 6 -12 14 -9 22 9 7 34 -20 34
-19 0 -24 5 -24 24 0 13 -6 29 -14 35 -12 10 -15 6 -18 -26z m57 -171 c0 -18
-20 -15 -23 4 -3 10 1 15 10 12 7 -3 13 -10 13 -16z"/>
<path d="M2645 830 c-27 -52 -17 -110 20 -110 1 0 6 17 9 38 4 20 9 49 12 63
8 40 -22 46 -41 9z"/>
<path d="M3530 666 c0 -9 5 -16 10 -16 6 0 10 4 10 9 0 6 -4 13 -10 16 -5 3
-10 -1 -10 -9z"/>
<path d="M3530 599 c0 -7 3 -9 7 -6 3 4 13 1 21 -6 13 -10 14 -9 10 3 -6 19
-38 26 -38 9z"/>
<path d="M3605 540 c-3 -5 -1 -10 4 -10 6 0 11 5 11 10 0 6 -2 10 -4 10 -3 0
-8 -4 -11 -10z"/>
<path d="M3630 455 c-7 -9 -10 -18 -7 -21 7 -8 47 14 47 26 0 15 -26 12 -40
-5z"/>
<path d="M3660 410 c-8 -5 -11 -12 -8 -16 10 -9 38 3 38 16 0 12 -10 13 -30 0z"/>
</g>
</svg>
